# Blender 5.2.0 LTS
# www.blender.org
mtllib knight_B1_Material_0.mtl
o knight_B1_Material_0.001
v 0.332499 0.847112 -1.078081
v 0.332499 0.605314 -1.191438
v 0.269038 0.714340 -1.198847
v -0.305109 0.566599 -1.188807
v -0.305109 0.826400 -1.096920
v -0.217645 0.714340 -1.198847
v -0.397870 -3.346834 -1.093139
v -0.452002 -3.279927 -1.241865
v 0.000000 -3.279927 -1.321565
v 0.000000 -3.346834 -1.163294
v -0.457296 -3.010697 -1.256411
v -0.342020 -3.019086 -0.939693
v 0.000000 -3.019086 -1.000000
v 0.000000 -3.010696 -1.337045
v -0.642564 -2.163967 -0.765777
v -0.341901 -2.163967 -0.939365
v -0.388554 -2.270907 -1.067544
v -0.730243 -2.270907 -0.870269
v 0.232997 -1.760408 0.640154
v -0.000000 -1.760408 0.681238
v -0.000000 -1.858418 0.821706
v 0.281040 -1.858418 0.772151
v -0.747751 -3.346834 -0.891135
v -0.849486 -3.279927 -1.012378
v -0.859436 -3.010697 -1.024236
v -0.642788 -3.019086 -0.766044
v -0.865723 -2.163967 -0.499826
v -0.983854 -2.270907 -0.568028
v 0.543354 -1.981971 0.647545
v 0.289113 -1.981971 0.794331
v 0.309307 -2.062422 0.849814
v 0.581307 -2.062422 0.692775
v -1.007442 -3.346834 -0.581647
v -1.144509 -3.279927 -0.660783
v -1.157915 -3.010697 -0.668522
v -0.866025 -3.019086 -0.500000
v -0.984464 -2.163967 -0.173588
v -1.118797 -2.270907 -0.197274
v 0.437891 -1.760408 0.521859
v 0.528183 -1.858418 0.629463
v -1.145621 -3.346834 -0.202004
v -1.301488 -3.279927 -0.229487
v -1.316732 -3.010697 -0.232175
v -0.984808 -3.019086 -0.173648
v -0.984464 -2.163967 0.173588
v -1.118797 -2.270907 0.197274
v 0.732059 -1.981971 0.422655
v 0.783193 -2.062422 0.452177
v -1.145621 -3.346834 0.202004
v -1.301488 -3.279927 0.229487
v -1.316732 -3.010697 0.232175
v -0.984808 -3.019086 0.173648
v -0.865723 -2.163967 0.499826
v -0.983854 -2.270907 0.568028
v 0.589969 -1.760408 0.340619
v 0.711618 -1.858418 0.410853
v -1.007442 -3.346834 0.581647
v -1.144509 -3.279927 0.660783
v -1.157915 -3.010697 0.668522
v -0.866025 -3.019086 0.500000
v -0.642564 -2.163967 0.765777
v -0.730243 -2.270907 0.870269
v 0.832467 -1.981971 0.146786
v 0.890614 -2.062422 0.157039
v -0.747751 -3.346834 0.891135
v -0.849486 -3.279927 1.012378
v -0.859436 -3.010697 1.024236
v -0.642788 -3.019086 0.766044
v -0.341901 -2.163967 0.939365
v -0.388554 -2.270907 1.067544
v 0.670888 -1.760408 0.118296
v 0.809223 -1.858418 0.142688
v -0.397870 -3.346834 1.093139
v -0.452002 -3.279927 1.241865
v -0.457296 -3.010697 1.256411
v -0.342020 -3.019086 0.939693
v 0.000000 -2.163967 0.999651
v 0.000000 -2.270907 1.136056
v 0.832467 -1.981971 -0.146786
v 0.890614 -2.062422 -0.157039
v 0.000000 -3.346834 1.163294
v 0.000000 -3.279927 1.321565
v 0.000000 -3.010697 1.337045
v 0.000000 -3.019086 1.000000
v 0.341901 -2.163967 0.939365
v 0.388554 -2.270907 1.067544
v 0.670888 -1.760408 -0.118296
v 0.809223 -1.858418 -0.142688
v 0.397870 -3.346834 1.093139
v 0.452002 -3.279927 1.241865
v 0.457296 -3.010697 1.256411
v 0.342020 -3.019086 0.939693
v 0.642564 -2.163967 0.765777
v 0.730243 -2.270907 0.870269
v 0.732059 -1.981971 -0.422655
v 0.783193 -2.062422 -0.452177
v 0.747751 -3.346834 0.891135
v 0.849486 -3.279927 1.012378
v 0.859436 -3.010697 1.024236
v 0.642788 -3.019086 0.766044
v 0.865723 -2.163967 0.499826
v 0.983854 -2.270907 0.568028
v 0.589969 -1.760408 -0.340619
v 0.711618 -1.858418 -0.410853
v 1.007442 -3.346834 0.581647
v 1.144509 -3.279927 0.660783
v 1.157915 -3.010697 0.668522
v 0.866025 -3.019086 0.500000
v 0.984464 -2.163967 0.173588
v 1.118797 -2.270907 0.197274
v 0.543354 -1.981971 -0.647544
v 0.581307 -2.062422 -0.692775
v 1.145621 -3.346834 0.202004
v 1.301488 -3.279927 0.229487
v 1.316732 -3.010697 0.232175
v 0.984808 -3.019086 0.173648
v 0.984464 -2.163967 -0.173588
v 1.118797 -2.270907 -0.197274
v 0.437891 -1.760408 -0.521859
v 0.528183 -1.858418 -0.629463
v 1.145621 -3.346834 -0.202004
v 1.301488 -3.279927 -0.229487
v 1.316732 -3.010697 -0.232175
v 0.984808 -3.019086 -0.173648
v 0.865723 -2.163967 -0.499826
v 0.983854 -2.270907 -0.568028
v 0.289113 -1.981971 -0.794331
v 0.309307 -2.062422 -0.849814
v 1.007442 -3.346834 -0.581647
v 1.144509 -3.279927 -0.660783
v 1.157915 -3.010697 -0.668522
v 0.866025 -3.019086 -0.500000
v 0.642564 -2.163967 -0.765777
v 0.730243 -2.270907 -0.870269
v 0.232997 -1.760408 -0.640154
v 0.281040 -1.858418 -0.772151
v 0.747751 -3.346834 -0.891135
v 0.849486 -3.279927 -1.012378
v 0.859436 -3.010697 -1.024236
v 0.642788 -3.019086 -0.766044
v 0.341901 -2.163967 -0.939365
v 0.388554 -2.270907 -1.067544
v 0.000000 -1.981971 -0.845309
v -0.000000 -1.858417 -0.821706
v 0.397870 -3.346834 -1.093139
v 0.452002 -3.279927 -1.241865
v 0.457296 -3.010697 -1.256411
v 0.342020 -3.019086 -0.939693
v -0.000000 -1.760408 -0.681238
v 0.000000 -2.163966 -0.999651
v 0.000000 -2.062421 -0.904353
v -0.232997 -1.760408 -0.640154
v -0.281040 -1.858418 -0.772151
v -0.289113 -1.981971 -0.794331
v -0.309307 -2.062422 -0.849814
v 0.000000 -3.279927 -1.321565
v 0.000000 -3.010696 -1.337045
v 0.457296 -3.010697 -1.256411
v 0.452002 -3.279927 -1.241865
v 0.859436 -3.010697 -1.024236
v 0.849486 -3.279927 -1.012378
v 1.157915 -3.010697 -0.668522
v 1.144509 -3.279927 -0.660783
v 1.316732 -3.010697 -0.232175
v 1.301488 -3.279927 -0.229487
v 1.316732 -3.010697 0.232175
v 1.301488 -3.279927 0.229487
v 1.157915 -3.010697 0.668522
v 1.144509 -3.279927 0.660783
v 0.859436 -3.010697 1.024236
v 0.849486 -3.279927 1.012378
v 0.457296 -3.010697 1.256411
v 0.452002 -3.279927 1.241865
v 0.000000 -3.010697 1.337045
v 0.000000 -3.279927 1.321565
v -0.457296 -3.010697 1.256411
v -0.452002 -3.279927 1.241865
v -0.859436 -3.010697 1.024236
v -0.849486 -3.279927 1.012378
v -1.157915 -3.010697 0.668522
v -1.144509 -3.279927 0.660783
v -1.316732 -3.010697 0.232175
v -1.301488 -3.279927 0.229487
v -1.316732 -3.010697 -0.232175
v -1.301488 -3.279927 -0.229487
v -1.157915 -3.010697 -0.668522
v -1.144509 -3.279927 -0.660783
v -0.859436 -3.010697 -1.024236
v -0.849486 -3.279927 -1.012378
v -0.457296 -3.010697 -1.256411
v -0.452002 -3.279927 -1.241865
v 0.342020 -3.019086 -0.939693
v 0.410567 -2.850044 -1.128022
v 0.771613 -2.850044 -0.919572
v 0.642788 -3.019086 -0.766044
v 0.000000 -2.850043 -1.200416
v 0.000000 -2.707792 -1.265147
v 0.432706 -2.707793 -1.188849
v 0.000000 -2.546028 -1.284253
v 0.439241 -2.546028 -1.206804
v 0.000000 -2.407156 -1.265147
v 0.432706 -2.407156 -1.188849
v 0.000000 -2.270906 -1.136057
v 1.039591 -2.850044 -0.600208
v 0.866025 -3.019086 -0.500000
v -0.543354 -1.981971 -0.647544
v -0.581307 -2.062422 -0.692775
v 0.813221 -2.707793 -0.969159
v 0.825502 -2.546028 -0.983795
v 0.813221 -2.407156 -0.969159
v 1.182179 -2.850044 -0.208450
v 0.984808 -3.019086 -0.173648
v -0.437891 -1.760408 -0.521859
v -0.528183 -1.858418 -0.629463
v 1.095649 -2.707793 -0.632573
v 1.112196 -2.546028 -0.642127
v 1.095649 -2.407156 -0.632573
v 1.182179 -2.850044 0.208450
v 0.984808 -3.019086 0.173648
v -0.732059 -1.981971 -0.422655
v -0.783193 -2.062422 -0.452177
v 1.245926 -2.707793 -0.219690
v 1.264743 -2.546028 -0.223008
v 1.245926 -2.407156 -0.219690
v 1.039591 -2.850044 0.600208
v 0.866025 -3.019086 0.500000
v -0.589969 -1.760408 -0.340619
v -0.711618 -1.858418 -0.410853
v 1.245926 -2.707793 0.219690
v 1.264743 -2.546028 0.223008
v 1.245926 -2.407156 0.219690
v 0.771613 -2.850044 0.919572
v 0.642788 -3.019086 0.766044
v -0.832467 -1.981971 -0.146786
v -0.890614 -2.062422 -0.157039
v 1.095649 -2.707793 0.632573
v 1.112196 -2.546028 0.642127
v 1.095649 -2.407156 0.632573
v 0.410567 -2.850044 1.128022
v 0.342020 -3.019086 0.939693
v -0.670888 -1.760408 -0.118296
v -0.809223 -1.858418 -0.142688
v 0.813221 -2.707793 0.969159
v 0.825502 -2.546028 0.983795
v 0.813221 -2.407156 0.969159
v 0.000000 -2.850044 1.200416
v 0.000000 -3.019086 1.000000
v -0.832467 -1.981971 0.146786
v -0.890614 -2.062422 0.157039
v 0.432706 -2.707793 1.188849
v 0.439241 -2.546028 1.206804
v 0.432706 -2.407156 1.188849
v -0.410567 -2.850044 1.128022
v -0.342020 -3.019086 0.939693
v -0.670888 -1.760408 0.118296
v -0.809223 -1.858418 0.142688
v 0.000000 -2.707793 1.265147
v 0.000000 -2.546028 1.284253
v 0.000000 -2.407156 1.265147
v -0.771613 -2.850044 0.919572
v -0.642788 -3.019086 0.766044
v -0.732059 -1.981971 0.422655
v -0.783193 -2.062422 0.452177
v -0.432706 -2.707793 1.188849
v -0.439241 -2.546028 1.206804
v -0.432706 -2.407156 1.188849
v -1.039591 -2.850044 0.600208
v -0.866025 -3.019086 0.500000
v -0.589969 -1.760408 0.340619
v -0.711618 -1.858418 0.410853
v -0.813221 -2.707793 0.969159
v -0.825502 -2.546028 0.983795
v -0.813221 -2.407156 0.969159
v -1.182179 -2.850044 0.208450
v -0.984808 -3.019086 0.173648
v -0.543354 -1.981971 0.647545
v -0.581307 -2.062422 0.692775
v -1.095649 -2.707793 0.632573
v -1.112196 -2.546028 0.642127
v -1.095649 -2.407156 0.632573
v -1.182179 -2.850044 -0.208450
v -0.984808 -3.019086 -0.173648
v -0.437891 -1.760408 0.521859
v -0.528183 -1.858418 0.629463
v -1.245926 -2.707793 0.219690
v -1.264743 -2.546028 0.223008
v -1.245926 -2.407156 0.219690
v -1.039591 -2.850044 -0.600208
v -0.866025 -3.019086 -0.500000
v -0.289113 -1.981971 0.794331
v -0.309307 -2.062422 0.849814
v -1.245926 -2.707793 -0.219690
v -1.264743 -2.546028 -0.223008
v -1.245926 -2.407156 -0.219690
v -0.771613 -2.850044 -0.919572
v -0.642788 -3.019086 -0.766044
v -0.232997 -1.760408 0.640154
v -0.281040 -1.858418 0.772151
v -1.095649 -2.707793 -0.632573
v -1.112196 -2.546028 -0.642127
v -1.095649 -2.407156 -0.632573
v -0.410567 -2.850044 -1.128022
v -0.342020 -3.019086 -0.939693
v 0.000000 -1.981971 0.845309
v 0.000000 -2.062422 0.904353
v -0.813221 -2.707793 -0.969159
v -0.825502 -2.546028 -0.983795
v -0.813221 -2.407156 -0.969159
v 0.000000 -3.019086 -1.000000
v -0.432706 -2.707793 -1.188849
v -0.439241 -2.546028 -1.206804
v -0.432706 -2.407156 -1.188849
v -0.000000 -1.537799 -0.532838
v 0.182241 -1.537799 -0.500704
v -0.000000 -1.360534 -0.508327
v 0.173858 -1.360535 -0.477672
v 0.342501 -1.537799 -0.408177
v 0.326747 -1.360535 -0.389401
v 0.461451 -1.537799 -0.266419
v 0.440224 -1.360535 -0.254164
v 0.524743 -1.537799 -0.092526
v 0.500605 -1.360535 -0.088270
v 0.524743 -1.537799 0.092526
v 0.500605 -1.360535 0.088270
v 0.461451 -1.537799 0.266419
v 0.440224 -1.360535 0.254164
v 0.342501 -1.537799 0.408177
v 0.326747 -1.360535 0.389401
v 0.182241 -1.537799 0.500704
v 0.173858 -1.360535 0.477672
v -0.000000 -1.537799 0.532838
v -0.000000 -1.360535 0.508327
v -0.182241 -1.537799 0.500704
v -0.173858 -1.360535 0.477672
v -0.342501 -1.537799 0.408177
v -0.326747 -1.360535 0.389401
v -0.461451 -1.537799 0.266419
v -0.440224 -1.360535 0.254164
v -0.524743 -1.537799 0.092526
v -0.500605 -1.360535 0.088270
v -0.524743 -1.537799 -0.092526
v -0.500605 -1.360535 -0.088270
v -0.461451 -1.537799 -0.266419
v -0.440224 -1.360535 -0.254164
v -0.342501 -1.537799 -0.408177
v -0.326747 -1.360535 -0.389401
v -0.182241 -1.537799 -0.500704
v -0.173858 -1.360535 -0.477672
v 0.000000 -1.064509 -0.598435
v 0.083386 -1.064509 -0.562345
v 0.156715 -1.064509 -0.458428
v 0.211142 -1.064509 -0.299218
v 0.240101 -1.064509 -0.103917
v 0.240101 -1.064509 0.103917
v 0.211142 -1.064509 0.299218
v 0.156715 -1.064509 0.458428
v 0.083386 -1.064509 0.562345
v 0.000000 -1.064509 0.598435
v -0.083386 -1.064509 0.562345
v -0.156715 -1.064509 0.458428
v -0.211142 -1.064509 0.299218
v -0.240101 -1.064509 0.103917
v -0.240101 -1.064509 -0.103917
v -0.211142 -1.064509 -0.299218
v -0.156715 -1.064509 -0.458428
v -0.083386 -1.064509 -0.562345
v 0.332499 -0.896997 -0.981099
v 0.332499 -1.054446 -0.860500
v -0.305109 -1.054446 -0.860500
v -0.305109 -0.896997 -0.981099
v 0.332499 0.563591 0.090892
v 0.332499 0.363143 -0.056226
v -0.305109 0.363143 -0.056226
v -0.305109 0.563591 0.090892
v 0.332499 0.633940 0.027242
v 0.332499 0.563591 0.090892
v -0.305109 0.563591 0.090892
v -0.305109 0.633940 0.027242
v 0.332499 0.419542 -0.847100
v 0.332499 0.633940 0.027242
v -0.305109 0.633940 0.027242
v -0.305109 0.419542 -0.847100
v 0.332499 0.241994 -0.997849
v -0.305109 0.241994 -0.997849
v 0.332499 0.295593 -1.101698
v 0.332499 0.241994 -0.997849
v -0.305109 0.241994 -0.997849
v -0.305109 0.295593 -1.101698
v 0.332499 0.325742 -1.081598
v 0.332499 0.295593 -1.101698
v -0.305109 0.295593 -1.101698
v -0.305109 0.325742 -1.081598
v 0.332499 0.365943 -1.084949
v -0.305109 0.365943 -1.084949
v 0.332499 0.339143 -1.125148
v 0.332499 0.365943 -1.084949
v -0.305109 0.365943 -1.084949
v -0.305109 0.339143 -1.125148
v 0.332499 0.369292 -1.175398
v 0.332499 0.339143 -1.125148
v -0.305109 0.339143 -1.125148
v -0.305109 0.369292 -1.175398
v 0.332499 1.522391 -0.493271
v 0.332499 1.344135 -0.626002
v -0.305109 1.344135 -0.626002
v -0.305109 1.522391 -0.493271
v 0.332499 1.574320 -0.442834
v -0.305109 1.574320 -0.442834
v 0.332499 1.614486 -0.352596
v -0.305109 1.614486 -0.352596
v 0.332499 1.948354 -0.142772
v 0.332499 1.648765 -0.156002
v 0.113069 1.648765 -0.156002
v 0.159296 1.948354 -0.142772
v 0.332499 1.965083 -0.087691
v 0.332499 1.948354 -0.142772
v 0.159296 1.948354 -0.142772
v 0.163979 1.965083 -0.087691
v 0.332499 1.943589 -0.005033
v 0.155960 1.943589 -0.005033
v 0.332499 1.844772 0.117477
v 0.132351 1.844772 0.117477
v 0.332499 1.674160 0.220972
v 0.108994 1.674160 0.220972
v 0.332499 -1.081642 0.673722
v 0.332499 -1.042527 0.787507
v -0.305109 -1.042527 0.787507
v -0.305109 -1.081642 0.673722
v 0.332499 -1.054446 -0.860500
v -0.305109 -1.054446 -0.860500
v 0.332499 1.518357 0.543863
v 0.332499 1.587132 0.458001
v -0.305109 1.587132 0.458001
v -0.305109 1.518357 0.543863
v -0.128837 1.948354 -0.142772
v -0.102150 1.648765 -0.156002
v -0.305109 1.648765 -0.156002
v -0.305109 1.948354 -0.142772
v -0.132404 1.965083 -0.087691
v -0.128837 1.948354 -0.142772
v -0.305109 1.948354 -0.142772
v -0.305109 1.965083 -0.087691
v -0.158634 1.674160 0.220972
v 0.113069 1.648765 -0.156002
v -0.102150 1.648765 -0.156002
v -0.126652 1.943589 -0.005033
v -0.305109 1.943589 -0.005033
v -0.134416 1.844772 0.117477
v -0.305109 1.844772 0.117477
v -0.305109 1.674160 0.220972
v -0.305109 1.237129 -0.360483
v -0.305109 1.249367 -0.330417
v -0.265109 1.249367 -0.330417
v -0.265109 1.237129 -0.360483
v 0.332499 1.269788 -0.325033
v 0.332499 1.237565 -0.354838
v 0.292499 1.237565 -0.354838
v 0.292499 1.269788 -0.325033
v -0.305109 1.392864 -0.398163
v -0.305109 1.378879 -0.440532
v -0.265109 1.378879 -0.440532
v -0.265109 1.392864 -0.398163
v -0.305109 1.329736 -0.321691
v -0.305109 1.362411 -0.336783
v -0.265109 1.362411 -0.336783
v -0.265109 1.329736 -0.321691
v -0.305109 1.333289 -0.479725
v -0.305109 1.288989 -0.480898
v -0.265109 1.288989 -0.480898
v -0.265109 1.333289 -0.479725
v -0.305109 1.239424 -0.421327
v -0.265109 1.239424 -0.421327
v -0.305109 1.289693 -0.311872
v -0.265109 1.289693 -0.311872
v -0.305109 1.356385 -0.468771
v -0.265109 1.356385 -0.468771
v -0.305109 1.262975 -0.453307
v -0.265109 1.262975 -0.453307
v -0.305109 1.288989 -0.480898
v -0.265109 1.288989 -0.480898
v 0.332499 1.376196 -0.447088
v 0.332499 1.388722 -0.414711
v 0.292499 1.388722 -0.414711
v 0.292499 1.376196 -0.447088
v 0.332499 1.232635 -0.403555
v 0.292499 1.232635 -0.403555
v 0.332499 1.387370 -0.386350
v 0.292499 1.387370 -0.386350
v 0.332499 1.243053 -0.434636
v 0.292499 1.243053 -0.434636
v 0.332499 1.373860 -0.362189
v 0.292499 1.373860 -0.362189
v 0.332499 1.260743 -0.462436
v 0.292499 1.260743 -0.462436
v 0.332499 1.357807 -0.338691
v 0.292499 1.357807 -0.338691
v 0.332499 1.283502 -0.478930
v 0.292499 1.283502 -0.478930
v 0.332499 1.325239 -0.320768
v 0.292499 1.325239 -0.320768
v 0.332499 1.309031 -0.482354
v 0.292499 1.309031 -0.482354
v 0.332499 1.311477 -0.319254
v 0.292499 1.311477 -0.319254
v 0.332499 1.352704 -0.470599
v 0.292499 1.352704 -0.470599
v 0.146193 1.067223 0.947903
v 0.193905 1.268163 0.818177
v -0.186932 1.268163 0.818177
v -0.163383 1.067223 0.947903
v 0.145608 0.994363 0.985977
v -0.154178 0.994363 0.985977
v 0.126548 0.597906 1.086522
v -0.117212 0.597906 1.086522
v 0.114781 -0.365206 1.081777
v -0.110459 -0.365206 1.081777
v 0.149671 -0.643734 1.030003
v -0.158734 -0.643734 1.030003
v 0.286549 -0.956066 0.892661
v -0.264225 -0.956066 0.892661
v 0.229478 1.430645 0.653366
v -0.241130 1.430645 0.653366
v -0.211142 -1.064509 0.299218
v -0.240101 -1.064509 -0.103917
v -0.240101 -1.064509 0.103917
v -0.211142 -1.064509 -0.299218
v -0.156715 -1.064509 0.458428
v -0.156715 -1.064509 -0.458428
v -0.083386 -1.064509 0.562345
v -0.083386 -1.064509 -0.562345
v 0.000000 -1.064509 0.598435
v 0.000000 -1.064509 -0.598435
v 0.083386 -1.064509 0.562345
v 0.083386 -1.064509 -0.562345
v 0.156715 -1.064509 0.458428
v 0.156715 -1.064509 -0.458428
v 0.211142 -1.064509 0.299218
v 0.211142 -1.064509 -0.299218
v 0.240101 -1.064509 0.103917
v 0.240101 -1.064509 -0.103917
v 0.332499 1.357807 -0.338691
v 0.332499 1.614486 -0.352596
v 0.332499 1.325239 -0.320768
v 0.332499 1.373860 -0.362189
v 0.332499 1.574320 -0.442834
v 0.332499 1.387370 -0.386350
v 0.332499 1.388722 -0.414711
v 0.332499 1.376196 -0.447088
v 0.332499 1.522391 -0.493271
v 0.332499 1.352704 -0.470599
v 0.332499 1.309031 -0.482354
v 0.332499 1.344135 -0.626002
v -0.305109 1.522391 -0.493271
v -0.305109 1.378879 -0.440532
v -0.305109 1.392864 -0.398163
v -0.305109 1.356385 -0.468771
v -0.305109 1.333289 -0.479725
v -0.305109 1.288989 -0.480898
v -0.305109 1.344135 -0.626002
v 0.332499 0.847112 -1.078081
v -0.305109 1.648765 -0.156002
v 0.332499 1.648765 -0.156002
v 0.114781 -0.365206 1.081777
v 0.145608 0.994363 0.985977
v 0.126548 0.597906 1.086522
v 0.149671 -0.643734 1.030003
v 0.300881 0.106291 0.960385
v 0.286549 -0.956066 0.892661
v 0.336183 -0.100900 0.908065
v 0.355594 -0.346625 0.843902
v 0.330089 -0.188219 0.823245
v 0.288718 -0.993620 0.846988
v 0.350014 -0.524670 0.834467
v 0.332499 -1.042527 0.787507
v 0.330089 -0.557762 0.780998
v 0.332499 -0.672906 0.721035
v 0.367541 -0.376407 0.742357
v 0.330089 0.094595 0.878352
v 0.146193 1.067223 0.947903
v 0.332499 0.601612 0.900592
v 0.193905 1.268163 0.818177
v 0.332499 1.154454 0.772531
v 0.229478 1.430645 0.653366
v 0.332499 1.332116 0.670575
v 0.332499 1.518357 0.543863
v 0.288718 -0.993620 0.846988
v -0.232839 -0.733447 -0.870749
v 0.332499 -0.896997 -0.981099
v -0.305109 -0.896997 -0.981099
v 0.264296 -0.754119 -0.876235
v 0.230917 -0.121525 -0.411945
v -0.184292 -0.106903 -0.401214
v -0.305109 0.601612 0.900592
v -0.335835 0.055529 0.846463
v -0.311626 0.090460 0.934769
v -0.305109 1.154454 0.772531
v -0.335835 -0.227285 0.791356
v -0.305109 1.614486 -0.352596
v -0.305109 1.289693 -0.311872
v -0.305109 1.648765 -0.156002
v -0.305109 1.329736 -0.321691
v -0.305109 1.362411 -0.336783
v -0.305109 1.574320 -0.442834
v -0.335835 -0.407694 0.750039
v -0.324559 -0.406367 0.831011
v -0.305109 1.332116 0.670575
v -0.305109 -0.672906 0.721035
v -0.305109 -0.809295 0.470498
v -0.305109 1.518357 0.543863
v -0.305109 1.587132 0.458001
v -0.305109 -0.874425 0.297084
v -0.305109 1.674160 0.220972
v -0.305109 0.563591 0.090892
v -0.305109 -0.882610 -0.192090
v -0.305109 1.844772 0.117477
v -0.305109 0.363143 -0.056226
v -0.305109 0.114583 -0.137725
v -0.305109 -0.070549 -0.213191
v -0.305109 -0.853494 -0.248870
v -0.305109 -0.231206 -0.251073
v -0.305109 -0.717333 -0.296017
v -0.305109 -0.510277 -0.296398
v -0.344140 -0.519266 0.791954
v -0.275401 -0.582732 0.820242
v -0.273816 -0.147443 0.855978
v -0.305109 1.943589 -0.005033
v -0.305109 0.633940 0.027242
v -0.305109 1.249367 -0.330417
v -0.305109 0.419542 -0.847100
v -0.305109 1.965083 -0.087691
v -0.305109 1.948354 -0.142772
v -0.305109 1.237129 -0.360483
v -0.305109 1.239424 -0.421327
v -0.305109 1.262975 -0.453307
v -0.305109 0.826400 -1.096920
v -0.305109 0.241994 -0.997849
v -0.305109 0.325742 -1.081598
v -0.305109 0.365943 -1.084949
v -0.305109 0.339143 -1.125148
v -0.305109 0.369292 -1.175398
v -0.305109 0.295593 -1.101698
v -0.102150 1.648765 -0.156002
v -0.134416 1.844772 0.117477
v -0.158634 1.674160 0.220972
v -0.126652 1.943589 -0.005033
v -0.132404 1.965083 -0.087691
v -0.128837 1.948354 -0.142772
v 0.132351 1.844772 0.117477
v 0.113069 1.648765 -0.156002
v 0.108994 1.674160 0.220972
v 0.155960 1.943589 -0.005033
v 0.163979 1.965083 -0.087691
v 0.159296 1.948354 -0.142772
v 0.332499 -0.809295 0.470498
v 0.332499 1.587132 0.458001
v 0.332499 -0.874425 0.297084
v 0.332499 1.674160 0.220972
v 0.332499 0.563591 0.090892
v 0.332499 -0.882611 -0.192090
v 0.332499 1.844772 0.117477
v 0.332499 0.363143 -0.056226
v 0.332499 0.114583 -0.137725
v 0.332499 -0.070549 -0.213191
v 0.332499 -0.853494 -0.248871
v 0.332499 -0.231206 -0.251073
v 0.332499 -0.717333 -0.296017
v 0.332499 -0.510277 -0.296398
v 0.332499 1.943589 -0.005033
v 0.332499 0.633940 0.027242
v 0.332499 1.269788 -0.325033
v 0.332499 0.419542 -0.847100
v 0.332499 1.648765 -0.156002
v 0.332499 1.965083 -0.087691
v 0.332499 1.948354 -0.142772
v 0.332499 1.311477 -0.319254
v 0.332499 1.237565 -0.354838
v 0.332499 1.232635 -0.403555
v 0.332499 1.243053 -0.434636
v 0.332499 1.260743 -0.462436
v 0.332499 1.283502 -0.478930
v 0.332499 0.241994 -0.997849
v 0.332499 0.325742 -1.081598
v 0.332499 0.295593 -1.101698
v 0.332499 0.365943 -1.084949
v 0.332499 0.605314 -1.191438
v 0.332499 0.339143 -1.125148
v 0.332499 0.369292 -1.175398
v -0.265109 1.329736 -0.321691
v -0.265109 1.249367 -0.330417
v -0.265109 1.289693 -0.311872
v -0.265109 1.362411 -0.336783
v -0.265109 1.237129 -0.360483
v -0.265109 1.392864 -0.398163
v -0.265109 1.239424 -0.421327
v -0.265109 1.378879 -0.440532
v -0.265109 1.262975 -0.453307
v -0.265109 1.356385 -0.468771
v -0.265109 1.288989 -0.480898
v -0.265109 1.333289 -0.479725
v 0.292499 1.269788 -0.325033
v 0.292499 1.325239 -0.320768
v 0.292499 1.311477 -0.319254
v 0.292499 1.357807 -0.338691
v 0.292499 1.237565 -0.354838
v 0.292499 1.373860 -0.362189
v 0.292499 1.232635 -0.403555
v 0.292499 1.387370 -0.386350
v 0.292499 1.388722 -0.414711
v 0.292499 1.243053 -0.434636
v 0.292499 1.376196 -0.447088
v 0.292499 1.260743 -0.462436
v 0.292499 1.352704 -0.470599
v 0.292499 1.283502 -0.478930
v 0.292499 1.309031 -0.482354
v -0.163383 1.067223 0.947903
v -0.186932 1.268163 0.818177
v -0.241130 1.430645 0.653366
v -0.154178 0.994363 0.985977
v -0.110459 -0.365206 1.081777
v -0.117212 0.597906 1.086522
v -0.158734 -0.643734 1.030003
v -0.264225 -0.956066 0.892661
v -0.305109 -1.042527 0.787507
v -0.305109 -1.081642 0.673722
v -0.305109 -1.054446 -0.860500
v -0.184292 -0.106903 -0.401214
v -0.232839 -0.733447 -0.870749
v -0.305109 -0.896997 -0.981099
v 0.332499 -1.054446 -0.860500
v 0.230917 -0.121525 -0.411945
v 0.264296 -0.754119 -0.876235
v 0.332499 -0.896997 -0.981099
v 0.332499 -1.081642 0.673722
v -0.305109 0.566599 -1.188807
v 0.332499 0.369292 -1.175398
v -0.305109 0.369292 -1.175398
vn 0.7068 0.4588 -0.5384
vn 0.7057 0.0126 -0.7084
vn 0.2371 0.3342 -0.9122
vn -0.7043 0.0013 -0.7099
vn -0.7047 0.4404 -0.5563
vn -0.1867 0.3237 -0.9276
vn -0.0751 -0.9756 -0.2064
vn -0.1332 -0.9211 -0.3659
vn -0.0000 -0.9211 -0.3894
vn -0.0000 -0.9756 -0.2197
vn 0.0085 0.9997 0.0234
vn -0.0000 0.9997 0.0249
vn -0.4309 0.7420 -0.5136
vn -0.2293 0.7420 -0.6300
vn -0.2318 0.7353 -0.6368
vn -0.4356 0.7353 -0.5191
vn 0.2409 0.7100 0.6617
vn -0.0000 0.7100 0.7042
vn -0.0000 0.5258 0.8506
vn 0.2909 0.5258 0.7993
vn -0.1412 -0.9756 -0.1683
vn -0.2503 -0.9211 -0.2983
vn 0.0160 0.9997 0.0191
vn -0.5806 0.7420 -0.3352
vn -0.5869 0.7353 -0.3388
vn 0.5867 0.4087 0.6992
vn 0.3122 0.4087 0.8576
vn 0.2621 0.6425 0.7201
vn 0.4926 0.6425 0.5870
vn -0.1902 -0.9756 -0.1098
vn -0.3372 -0.9211 -0.1947
vn 0.0216 0.9997 0.0124
vn -0.6602 0.7420 -0.1164
vn -0.6674 0.7353 -0.1177
vn 0.4527 0.7100 0.5394
vn 0.5468 0.5258 0.6516
vn -0.2163 -0.9756 -0.0381
vn -0.3835 -0.9211 -0.0676
vn 0.0245 0.9997 0.0043
vn -0.6602 0.7420 0.1164
vn -0.6674 0.7353 0.1177
vn 0.7904 0.4087 0.4563
vn 0.6637 0.6425 0.3832
vn -0.2163 -0.9756 0.0381
vn -0.3835 -0.9211 0.0676
vn 0.0245 0.9997 -0.0043
vn -0.5806 0.7420 0.3352
vn -0.5869 0.7353 0.3388
vn 0.6099 0.7100 0.3521
vn 0.7367 0.5258 0.4253
vn -0.1902 -0.9756 0.1098
vn -0.3372 -0.9211 0.1947
vn 0.0216 0.9997 -0.0124
vn -0.4309 0.7420 0.5136
vn -0.4356 0.7353 0.5191
vn 0.8988 0.4087 0.1585
vn 0.7547 0.6425 0.1331
vn -0.1412 -0.9756 0.1683
vn -0.2503 -0.9211 0.2983
vn 0.0160 0.9997 -0.0191
vn -0.2293 0.7420 0.6300
vn -0.2318 0.7353 0.6368
vn 0.6935 0.7100 0.1223
vn 0.8377 0.5258 0.1477
vn -0.0751 -0.9756 0.2064
vn -0.1332 -0.9211 0.3659
vn 0.0085 0.9997 -0.0234
vn -0.0000 0.7420 0.6704
vn -0.0000 0.7353 0.6777
vn 0.8988 0.4087 -0.1585
vn 0.7547 0.6425 -0.1331
vn -0.0000 -0.9756 0.2197
vn -0.0000 -0.9211 0.3894
vn -0.0000 0.9997 -0.0249
vn 0.2293 0.7420 0.6300
vn 0.2318 0.7353 0.6368
vn 0.6935 0.7100 -0.1223
vn 0.8377 0.5258 -0.1477
vn 0.0751 -0.9756 0.2064
vn 0.1332 -0.9211 0.3659
vn -0.0085 0.9997 -0.0234
vn 0.4309 0.7420 0.5136
vn 0.4356 0.7353 0.5191
vn 0.7904 0.4087 -0.4563
vn 0.6637 0.6425 -0.3832
vn 0.1412 -0.9756 0.1683
vn 0.2503 -0.9211 0.2983
vn -0.0160 0.9997 -0.0191
vn 0.5806 0.7420 0.3352
vn 0.5869 0.7353 0.3388
vn 0.6099 0.7100 -0.3521
vn 0.7367 0.5258 -0.4253
vn 0.1902 -0.9756 0.1098
vn 0.3372 -0.9211 0.1947
vn -0.0216 0.9997 -0.0124
vn 0.6602 0.7420 0.1164
vn 0.6674 0.7353 0.1177
vn 0.5867 0.4087 -0.6991
vn 0.4926 0.6425 -0.5870
vn 0.2163 -0.9756 0.0381
vn 0.3835 -0.9211 0.0676
vn -0.0245 0.9997 -0.0043
vn 0.6602 0.7420 -0.1164
vn 0.6674 0.7353 -0.1177
vn 0.4527 0.7100 -0.5394
vn 0.5468 0.5258 -0.6516
vn 0.2163 -0.9756 -0.0381
vn 0.3835 -0.9211 -0.0676
vn -0.0245 0.9997 0.0043
vn 0.5806 0.7420 -0.3352
vn 0.5869 0.7353 -0.3388
vn 0.3122 0.4087 -0.8576
vn 0.2621 0.6425 -0.7201
vn 0.1902 -0.9756 -0.1098
vn 0.3372 -0.9211 -0.1947
vn -0.0216 0.9997 0.0124
vn 0.4309 0.7420 -0.5136
vn 0.4356 0.7353 -0.5191
vn 0.2409 0.7100 -0.6617
vn 0.2909 0.5258 -0.7993
vn 0.1412 -0.9756 -0.1683
vn 0.2503 -0.9211 -0.2983
vn -0.0160 0.9997 0.0191
vn 0.2293 0.7420 -0.6300
vn 0.2318 0.7353 -0.6368
vn -0.0000 0.4087 -0.9127
vn -0.0000 0.5258 -0.8506
vn 0.0751 -0.9756 -0.2064
vn 0.1332 -0.9211 -0.3659
vn -0.0085 0.9997 0.0234
vn -0.0000 0.7100 -0.7042
vn -0.0000 0.7420 -0.6704
vn -0.0000 0.6425 -0.7663
vn -0.2409 0.7100 -0.6617
vn -0.2909 0.5258 -0.7993
vn -0.3122 0.4087 -0.8576
vn -0.2621 0.6425 -0.7201
vn -0.0000 -0.0574 -0.9984
vn 0.3415 -0.0574 -0.9381
vn 0.6417 -0.0574 -0.7648
vn 0.8646 -0.0574 -0.4992
vn 0.9832 -0.0574 -0.1734
vn 0.9832 -0.0574 0.1734
vn 0.8646 -0.0574 0.4992
vn 0.6417 -0.0574 0.7648
vn 0.3415 -0.0574 0.9381
vn -0.0000 -0.0574 0.9984
vn -0.3415 -0.0574 0.9381
vn -0.6417 -0.0574 0.7648
vn -0.8646 -0.0574 0.4992
vn -0.9832 -0.0574 0.1734
vn -0.9832 -0.0574 -0.1734
vn -0.8646 -0.0574 -0.4992
vn -0.6417 -0.0574 -0.7648
vn -0.3415 -0.0574 -0.9381
vn 0.2205 -0.7644 -0.6059
vn 0.2755 -0.5926 -0.7569
vn 0.5178 -0.5926 -0.6170
vn 0.4144 -0.7644 -0.4939
vn -0.0000 -0.5926 -0.8055
vn -0.0000 -0.2646 -0.9643
vn 0.3298 -0.2646 -0.9062
vn -0.0000 0.0094 -1.0000
vn 0.3420 0.0094 -0.9397
vn -0.0000 0.4201 -0.9075
vn 0.3104 0.4201 -0.8527
vn -0.0000 0.7353 -0.6777
vn 0.6976 -0.5926 -0.4027
vn 0.5584 -0.7644 -0.3224
vn -0.5867 0.4087 -0.6992
vn -0.4926 0.6425 -0.5870
vn 0.6199 -0.2646 -0.7387
vn 0.6428 0.0094 -0.7660
vn 0.5833 0.4201 -0.6952
vn 0.7933 -0.5926 -0.1399
vn 0.6349 -0.7644 -0.1120
vn -0.4527 0.7100 -0.5394
vn -0.5468 0.5258 -0.6516
vn 0.8351 -0.2646 -0.4822
vn 0.8660 0.0094 -0.5000
vn 0.7859 0.4201 -0.4537
vn 0.7933 -0.5926 0.1399
vn 0.6349 -0.7644 0.1120
vn -0.7904 0.4087 -0.4563
vn -0.6637 0.6425 -0.3832
vn 0.9497 -0.2646 -0.1675
vn 0.9848 0.0094 -0.1736
vn 0.8937 0.4201 -0.1576
vn 0.6976 -0.5926 0.4027
vn 0.5584 -0.7644 0.3224
vn -0.6099 0.7100 -0.3521
vn -0.7367 0.5258 -0.4253
vn 0.9497 -0.2646 0.1675
vn 0.9848 0.0094 0.1736
vn 0.8937 0.4201 0.1576
vn 0.5178 -0.5926 0.6170
vn 0.4144 -0.7644 0.4939
vn -0.8988 0.4087 -0.1585
vn -0.7547 0.6425 -0.1331
vn 0.8351 -0.2646 0.4822
vn 0.8660 0.0094 0.5000
vn 0.7859 0.4201 0.4537
vn 0.2755 -0.5926 0.7569
vn 0.2205 -0.7644 0.6059
vn -0.6935 0.7100 -0.1223
vn -0.8377 0.5258 -0.1477
vn 0.6199 -0.2646 0.7387
vn 0.6428 0.0094 0.7660
vn 0.5833 0.4201 0.6952
vn -0.0000 -0.5926 0.8055
vn -0.0000 -0.7644 0.6447
vn -0.8988 0.4087 0.1585
vn -0.7547 0.6425 0.1331
vn 0.3298 -0.2646 0.9062
vn 0.3420 0.0094 0.9397
vn 0.3104 0.4201 0.8527
vn -0.2755 -0.5926 0.7569
vn -0.2205 -0.7644 0.6059
vn -0.6935 0.7100 0.1223
vn -0.8377 0.5258 0.1477
vn -0.0000 -0.2646 0.9643
vn -0.0000 0.0094 1.0000
vn -0.0000 0.4201 0.9075
vn -0.5178 -0.5926 0.6170
vn -0.4144 -0.7644 0.4939
vn -0.7904 0.4087 0.4563
vn -0.6637 0.6425 0.3832
vn -0.3298 -0.2646 0.9062
vn -0.3420 0.0094 0.9397
vn -0.3104 0.4201 0.8527
vn -0.6976 -0.5926 0.4027
vn -0.5584 -0.7644 0.3224
vn -0.6099 0.7100 0.3521
vn -0.7367 0.5258 0.4253
vn -0.6199 -0.2646 0.7387
vn -0.6428 0.0094 0.7660
vn -0.5833 0.4201 0.6952
vn -0.7933 -0.5926 0.1399
vn -0.6349 -0.7644 0.1120
vn -0.5867 0.4087 0.6991
vn -0.4926 0.6425 0.5870
vn -0.8351 -0.2646 0.4822
vn -0.8660 0.0094 0.5000
vn -0.7859 0.4201 0.4537
vn -0.7933 -0.5926 -0.1399
vn -0.6349 -0.7644 -0.1120
vn -0.4527 0.7100 0.5394
vn -0.5468 0.5258 0.6516
vn -0.9497 -0.2646 0.1675
vn -0.9848 0.0094 0.1736
vn -0.8937 0.4201 0.1576
vn -0.6976 -0.5926 -0.4027
vn -0.5584 -0.7644 -0.3224
vn -0.3122 0.4087 0.8576
vn -0.2621 0.6425 0.7201
vn -0.9497 -0.2646 -0.1675
vn -0.9848 0.0094 -0.1736
vn -0.8937 0.4201 -0.1576
vn -0.5178 -0.5926 -0.6170
vn -0.4144 -0.7644 -0.4939
vn -0.2409 0.7100 0.6617
vn -0.2909 0.5258 0.7993
vn -0.8351 -0.2646 -0.4822
vn -0.8660 0.0094 -0.5000
vn -0.7859 0.4201 -0.4537
vn -0.2755 -0.5926 -0.7569
vn -0.2205 -0.7644 -0.6059
vn -0.0000 0.4087 0.9127
vn -0.0000 0.6425 0.7663
vn -0.6199 -0.2646 -0.7387
vn -0.6428 0.0094 -0.7660
vn -0.5833 0.4201 -0.6952
vn -0.0000 -0.7644 -0.6447
vn -0.3298 -0.2646 -0.9062
vn -0.3420 0.0094 -0.9397
vn -0.3104 0.4201 -0.8527
vn -0.0000 0.3633 -0.9317
vn 0.3187 0.3633 -0.8755
vn -0.0000 -0.0564 -0.9984
vn 0.4259 0.0489 -0.9035
vn 0.5989 0.3633 -0.7137
vn 0.7027 0.2347 -0.6716
vn 0.8069 0.3633 -0.4658
vn 0.8445 0.3501 -0.4053
vn 0.9175 0.3633 -0.1618
vn 0.9084 0.3954 -0.1357
vn 0.9175 0.3633 0.1618
vn 0.9084 0.3954 0.1357
vn 0.8069 0.3633 0.4658
vn 0.8445 0.3501 0.4053
vn 0.5989 0.3633 0.7137
vn 0.7027 0.2347 0.6716
vn 0.3187 0.3633 0.8755
vn 0.4259 0.0489 0.9034
vn -0.0000 0.3633 0.9317
vn -0.0000 -0.0565 0.9984
vn -0.3187 0.3633 0.8755
vn -0.4259 0.0489 0.9034
vn -0.5989 0.3633 0.7137
vn -0.7027 0.2347 0.6716
vn -0.8069 0.3633 0.4658
vn -0.8445 0.3501 0.4053
vn -0.9175 0.3633 0.1618
vn -0.9084 0.3954 0.1357
vn -0.9175 0.3633 -0.1618
vn -0.9084 0.3954 -0.1357
vn -0.8069 0.3633 -0.4658
vn -0.8445 0.3501 -0.4053
vn -0.5989 0.3633 -0.7137
vn -0.7027 0.2347 -0.6716
vn -0.3187 0.3633 -0.8755
vn -0.4259 0.0489 -0.9034
vn -0.0000 -0.2476 -0.9689
vn 0.4104 -0.1208 -0.9039
vn 0.7163 0.2258 -0.6603
vn 0.7834 0.5192 -0.3417
vn 0.7625 0.6392 -0.1004
vn 0.7625 0.6392 0.1004
vn 0.7834 0.5192 0.3417
vn 0.7163 0.2257 0.6603
vn 0.4104 -0.1208 0.9039
vn -0.0000 -0.2476 0.9689
vn -0.4104 -0.1208 0.9039
vn -0.7163 0.2258 0.6603
vn -0.7834 0.5192 0.3417
vn -0.7625 0.6392 0.1004
vn -0.7625 0.6392 -0.1004
vn -0.7834 0.5192 -0.3417
vn -0.7163 0.2257 -0.6603
vn -0.4104 -0.1208 -0.9039
vn -0.0000 -0.6081 -0.7939
vn -0.0000 0.5917 -0.8062
vn 0.0023 0.5915 -0.8063
vn -0.0000 -0.6709 -0.7415
vn -0.0000 -0.8506 0.5258
vn -0.0000 -0.9712 0.2382
vn -0.0000 -0.6472 0.7623
vn -0.0000 -0.8886 -0.4586
vn -0.0000 0.2498 -0.9683
vn -0.0000 0.5547 -0.8320
vn -0.0000 -0.0831 -0.9965
vn -0.0000 -0.0830 -0.9965
vn -0.0000 -0.8320 0.5547
vn -0.0000 -0.8575 -0.5145
vn -0.0000 0.6484 -0.7613
vn -0.0000 0.6358 -0.7718
vn -0.0000 0.8200 -0.5724
vn -0.0000 0.9566 -0.2914
vn -0.0000 0.0441 -0.9990
vn -0.0000 0.9998 -0.0202
vn -0.0000 0.9568 -0.2906
vn -0.0000 0.9998 -0.0192
vn -0.0000 0.8931 0.4498
vn -0.0000 0.8856 0.4644
vn -0.0000 0.6584 0.7527
vn -0.0000 0.6470 0.7625
vn -0.0000 0.7721 0.6355
vn -0.0000 0.9219 0.3875
vn -0.0000 -0.9877 0.1560
vn -0.0000 -0.8897 0.4565
vn -0.0000 -0.8818 0.4716
vn -0.0000 -0.9877 0.1561
vn -0.0000 -0.9998 -0.0177
vn -0.0000 0.7805 0.6252
vn -0.0000 0.8710 0.4913
vn -0.0000 0.9998 -0.0198
vn -0.0000 0.9071 0.4208
vn -0.0000 0.9905 -0.1372
vn -0.0000 0.9909 -0.1350
vn -0.0000 0.8925 0.4510
vn -0.0000 0.6656 0.7463
vn -0.0000 0.9963 -0.0861
vn -0.0000 0.9334 -0.3589
vn -0.0000 0.7227 -0.6912
vn -0.0000 0.9848 -0.1735
vn -0.0000 0.4278 -0.9039
vn -0.0000 0.9751 -0.2216
vn -0.0000 0.8949 -0.4463
vn -0.0000 -0.9975 -0.0708
vn -0.0000 -0.8796 0.4757
vn -0.0000 -0.3303 -0.9439
vn -0.0000 -0.6972 -0.7169
vn -0.0000 -0.2325 0.9726
vn -0.0000 -0.0265 0.9996
vn 0.0001 0.9865 0.1636
vn -0.0000 0.9440 0.3299
vn -0.0000 0.0951 -0.9955
vn -0.0000 0.0952 -0.9955
vn -0.0000 -0.6214 0.7835
vn -0.0000 0.9403 0.3405
vn -0.0000 0.7678 0.6407
vn -0.0000 0.9698 0.2439
vn -0.0000 0.7276 0.6860
vn -0.0000 -0.8381 0.5456
vn -0.0000 -0.9871 0.1601
vn -0.0000 0.9985 0.0550
vn -0.0000 0.9938 0.1111
vn -0.0000 -0.9614 -0.2751
vn -0.0000 0.9755 0.2199
vn -0.0000 0.9026 0.4305
vn -0.0000 -0.8501 -0.5266
vn -0.0000 0.9308 0.3654
vn -0.0000 0.7281 0.6854
vn -0.0000 -0.6723 -0.7403
vn -0.0000 0.3711 0.9286
vn -0.0000 -0.3016 -0.9534
vn -0.0000 -0.0647 0.9979
vn -0.0000 0.0141 -0.9999
vn -0.0000 -0.5007 0.8656
vn -0.0000 0.5057 0.8627
vn -0.0000 0.6406 0.7679
vn -0.0000 0.6396 0.7687
vn -0.0000 0.5059 0.8626
vn -0.0000 0.3588 0.9334
vn -0.0000 0.3639 0.9315
vn -0.0000 0.1238 0.9923
vn -0.0000 0.1252 0.9921
vn -0.0000 -0.0972 0.9953
vn -0.0000 -0.0986 0.9951
vn -0.0000 -0.3109 0.9504
vn -0.0000 -0.3104 0.9506
vn -0.0000 -0.6320 0.7750
vn -0.0000 -0.6392 0.7690
vn -0.0000 0.7547 0.6561
vn -0.0000 0.7540 0.6569
vn -0.0000 1.0000 -0.0000
vn 1.0000 -0.0000 -0.0000
vn 1.0000 0.0001 0.0003
vn -1.0000 -0.0001 -0.0017
vn -1.0000 -0.0000 -0.0000
vn -1.0000 -0.0001 -0.0020
vn -1.0000 -0.0001 -0.0018
vn 0.7069 0.4588 -0.5383
vn -0.0000 0.9851 -0.1718
vn 0.7106 0.0673 0.7003
vn 0.7107 0.0673 0.7003
vn 0.7106 0.0673 0.7004
vn 0.9247 0.0364 0.3788
vn 0.9248 0.0364 0.3788
vn 0.9538 0.0287 0.2991
vn 0.9248 0.0365 0.3788
vn 0.9540 0.0287 0.2983
vn 0.9247 0.0365 0.3788
vn 0.7106 0.0674 0.7003
vn 0.9247 0.0365 0.3789
vn 0.9895 0.0139 0.1440
vn -0.0000 -0.7724 0.6351
vn 0.0049 0.5912 -0.8065
vn -0.9396 0.0293 0.3411
vn -0.9396 0.0292 0.3411
vn -0.9396 0.0293 0.3412
vn -1.0000 -0.0002 -0.0029
vn -0.9727 0.0199 0.2314
vn -1.0000 -0.0001 -0.0014
vn -0.9950 0.0086 0.0995
vn -0.9994 0.0187 -0.0280
vn -0.9906 0.0807 -0.1106
vn -0.9906 0.0807 -0.1107
vn -0.9977 0.0398 -0.0550
vn -0.7046 0.4405 -0.5563
vn -0.7043 0.0012 -0.7099
vn 0.9959 0.0176 0.0887
vn 0.9958 0.0185 0.0894
vn -0.9884 0.1492 -0.0295
vn -0.9884 0.1493 -0.0294
vn -0.9884 0.1493 -0.0295
vn -0.9884 0.1492 -0.0294
vn 0.9996 0.0160 -0.0214
vn 0.9927 0.0714 -0.0970
vn 0.9927 0.0714 -0.0971
vn 0.9982 0.0353 -0.0479
vn 0.7068 0.4589 -0.5383
vn -0.7637 0.0551 0.6432
vn -0.7637 0.0552 0.6432
vn -0.9644 0.0226 0.2635
vn -0.9732 0.1368 -0.1848
vn -0.9631 0.1601 -0.2163
vn -0.9631 0.1600 -0.2162
vn 0.9789 0.1210 -0.1647
vn 0.9709 0.1417 -0.1931
vn 0.9709 0.1417 -0.1930
vn -0.0000 -0.0678 -0.9977
vt 0.776220 0.423705
vt 0.421207 0.579378
vt 0.433019 0.569880
vt 0.736878 0.503529
vt 0.553989 0.535283
vt 0.540299 0.566848
vt 0.673677 0.707471
vt 0.699147 0.700299
vt 0.679331 0.724165
vt 0.654541 0.728547
vt 0.702424 0.659234
vt 0.648892 0.655358
vt 0.631015 0.669432
vt 0.682569 0.679449
vt 0.648646 0.520406
vt 0.650617 0.525275
vt 0.671958 0.542605
vt 0.668011 0.535691
vt 0.416613 0.462061
vt 0.435527 0.461837
vt 0.422698 0.474505
vt 0.399506 0.475386
vt 0.669552 0.687148
vt 0.692113 0.677852
vt 0.694977 0.640280
vt 0.647062 0.641455
vt 0.630753 0.516179
vt 0.646447 0.529802
vt 0.383286 0.494294
vt 0.396803 0.492150
vt 0.389807 0.502874
vt 0.374913 0.505852
vt 0.647676 0.669869
vt 0.665591 0.659187
vt 0.667841 0.624565
vt 0.629450 0.629367
vt 0.601566 0.512897
vt 0.612878 0.525302
vt 0.406646 0.462339
vt 0.386503 0.476497
vt 0.613743 0.656679
vt 0.626458 0.645193
vt 0.628045 0.612809
vt 0.600609 0.619971
vt 0.565179 0.510685
vt 0.571919 0.522302
vt 0.383666 0.496712
vt 0.374750 0.509237
vt 0.572410 0.647896
vt 0.579912 0.635994
vt 0.580849 0.605093
vt 0.564588 0.613631
vt 0.524896 0.509577
vt 0.527069 0.520810
vt 0.408137 0.462646
vt 0.387071 0.477747
vt 0.527190 0.643530
vt 0.529603 0.631455
vt 0.529912 0.601290
vt 0.524674 0.610454
vt 0.483441 0.509577
vt 0.481071 0.520810
vt 0.400588 0.499108
vt 0.392423 0.512620
vt 0.480823 0.643530
vt 0.478214 0.631455
vt 0.477907 0.601290
vt 0.483586 0.610453
vt 0.443331 0.510685
vt 0.436409 0.522302
vt 0.422634 0.462942
vt 0.403688 0.478980
vt 0.435789 0.647896
vt 0.428107 0.635993
vt 0.427176 0.605093
vt 0.443842 0.613631
vt 0.407290 0.512897
vt 0.395828 0.525302
vt 0.434184 0.501078
vt 0.428368 0.515425
vt 0.394832 0.656679
vt 0.381972 0.645193
vt 0.380395 0.612809
vt 0.408161 0.619971
vt 0.378617 0.516179
vt 0.362827 0.529802
vt 0.449682 0.463181
vt 0.436384 0.479991
vt 0.361464 0.669868
vt 0.343464 0.659187
vt 0.341233 0.624565
vt 0.379823 0.629367
vt 0.361386 0.520405
vt 0.342007 0.535691
vt 0.480533 0.502202
vt 0.478463 0.517034
vt 0.340327 0.687148
vt 0.317775 0.677852
vt 0.314945 0.640280
vt 0.362859 0.641455
vt 0.360176 0.525274
vt 0.338932 0.542605
vt 0.486007 0.463315
vt 0.481319 0.480567
vt 0.337072 0.707471
vt 0.311743 0.700299
vt 0.308520 0.659233
vt 0.361774 0.655358
vt 0.378924 0.530211
vt 0.358895 0.549763
vt 0.531615 0.502202
vt 0.533849 0.517035
vt 0.357111 0.728547
vt 0.332624 0.724165
vt 0.329466 0.679449
vt 0.380405 0.669432
vt 0.418660 0.534358
vt 0.404040 0.555894
vt 0.525709 0.463315
vt 0.530783 0.480567
vt 0.402699 0.746629
vt 0.384439 0.745135
vt 0.382061 0.697266
vt 0.419710 0.681236
vt 0.474991 0.536760
vt 0.469718 0.559496
vt 0.577667 0.501078
vt 0.583618 0.515425
vt 0.469173 0.757265
vt 0.462512 0.757689
vt 0.461652 0.707957
vt 0.475322 0.688066
vt 0.537600 0.536760
vt 0.543304 0.559496
vt 0.561810 0.463181
vt 0.575431 0.479992
vt 0.543707 0.757265
vt 0.550940 0.757689
vt 0.551920 0.707958
vt 0.537097 0.688066
vt 0.593555 0.534358
vt 0.608527 0.555894
vt 0.610742 0.499108
vt 0.607622 0.478980
vt 0.609727 0.746629
vt 0.628452 0.745135
vt 0.630935 0.697266
vt 0.592343 0.681236
vt 0.588459 0.462942
vt 0.632642 0.530211
vt 0.618994 0.512620
vt 0.602460 0.462646
vt 0.623623 0.477747
vt 0.627029 0.496712
vt 0.635981 0.509237
vt 0.614893 0.661367
vt 0.545719 0.669262
vt 0.661420 0.648011
vt 0.671919 0.625992
vt 0.622824 0.638665
vt 0.675394 0.599028
vt 0.625469 0.609926
vt 0.672723 0.574966
vt 0.623441 0.583874
vt 0.652899 0.549763
vt 0.467398 0.669261
vt 0.626769 0.494295
vt 0.635131 0.505852
vt 0.548788 0.646212
vt 0.549822 0.616431
vt 0.549044 0.589180
vt 0.397737 0.661367
vt 0.603438 0.462339
vt 0.623569 0.476498
vt 0.464591 0.646212
vt 0.463665 0.616431
vt 0.464406 0.589180
vt 0.350387 0.648011
vt 0.612684 0.492150
vt 0.619634 0.502874
vt 0.390023 0.638665
vt 0.387470 0.609925
vt 0.389471 0.583873
vt 0.330048 0.632546
vt 0.593006 0.462061
vt 0.610011 0.475386
vt 0.340036 0.625992
vt 0.336627 0.599028
vt 0.339288 0.574966
vt 0.334019 0.617737
vt 0.588351 0.490454
vt 0.593458 0.500536
vt 0.319336 0.611464
vt 0.315833 0.586577
vt 0.318564 0.564764
vt 0.356396 0.605224
vt 0.573717 0.461837
vt 0.586379 0.474505
vt 0.324480 0.597698
vt 0.321381 0.574820
vt 0.323796 0.555104
vt 0.391197 0.595721
vt 0.557227 0.489296
vt 0.560310 0.498947
vt 0.348782 0.586176
vt 0.346323 0.565010
vt 0.348241 0.547024
vt 0.433619 0.589416
vt 0.548322 0.461681
vt 0.556035 0.473902
vt 0.385758 0.577491
vt 0.384011 0.557634
vt 0.385377 0.540937
vt 0.480101 0.586288
vt 0.522322 0.488711
vt 0.523321 0.498148
vt 0.430372 0.571761
vt 0.429335 0.552775
vt 0.430151 0.536923
vt 0.527905 0.586288
vt 0.519423 0.461602
vt 0.521938 0.473597
vt 0.479001 0.568928
vt 0.478654 0.550375
vt 0.478936 0.534938
vt 0.574579 0.589416
vt 0.486256 0.488711
vt 0.485162 0.498148
vt 0.528933 0.568928
vt 0.529268 0.550375
vt 0.529022 0.534938
vt 0.617390 0.595721
vt 0.489428 0.461602
vt 0.486686 0.473597
vt 0.577761 0.571761
vt 0.578790 0.552776
vt 0.578008 0.536923
vt 0.652776 0.605224
vt 0.451505 0.489296
vt 0.448334 0.498947
vt 0.622779 0.577492
vt 0.624523 0.557634
vt 0.623189 0.540938
vt 0.675923 0.617737
vt 0.460662 0.461681
vt 0.452741 0.473902
vt 0.660367 0.586176
vt 0.662832 0.565010
vt 0.660941 0.547024
vt 0.680807 0.632546
vt 0.420688 0.490454
vt 0.415508 0.500536
vt 0.685481 0.597698
vt 0.688601 0.574821
vt 0.686203 0.555104
vt 0.691595 0.611464
vt 0.695139 0.586577
vt 0.692414 0.564764
vt 0.569113 0.428030
vt 0.548289 0.427255
vt 0.566116 0.400383
vt 0.546218 0.398925
vt 0.520724 0.426826
vt 0.519971 0.398118
vt 0.490630 0.426826
vt 0.491349 0.398118
vt 0.462900 0.427255
vt 0.464945 0.398925
vt 0.441778 0.428030
vt 0.444763 0.400383
vt 0.429865 0.429011
vt 0.433293 0.402235
vt 0.427871 0.430046
vt 0.431262 0.404196
vt 0.434992 0.431006
vt 0.437964 0.406021
vt 0.449528 0.431794
vt 0.451815 0.407523
vt 0.469403 0.432348
vt 0.470844 0.408581
vt 0.492476 0.432633
vt 0.492985 0.409125
vt 0.516642 0.432633
vt 0.516194 0.409125
vt 0.539824 0.432348
vt 0.538441 0.408581
vt 0.559913 0.431794
vt 0.557676 0.407523
vt 0.574752 0.431006
vt 0.571819 0.406021
vt 0.582243 0.430046
vt 0.578875 0.404196
vt 0.580648 0.429011
vt 0.577226 0.402235
vt 0.578212 0.352384
vt 0.565943 0.351412
vt 0.545551 0.351668
vt 0.520216 0.353103
vt 0.493874 0.355462
vt 0.470259 0.358355
vt 0.452201 0.361367
vt 0.441362 0.364130
vt 0.438329 0.366365
vt 0.442871 0.367884
vt 0.454191 0.368576
vt 0.471095 0.368396
vt 0.492050 0.367356
vt 0.515184 0.365527
vt 0.538249 0.363047
vt 0.558658 0.360142
vt 0.573654 0.357131
vt 0.580725 0.354406
vt 0.443640 0.656456
vt 0.445406 0.648250
vt 0.537510 0.645460
vt 0.539699 0.653527
vt 0.429002 0.383812
vt 0.431272 0.426095
vt 0.539824 0.423427
vt 0.539847 0.381208
vt 0.427653 0.383422
vt 0.541166 0.380757
vt 0.426811 0.536997
vt 0.550106 0.533616
vt 0.428996 0.579019
vt 0.550154 0.575566
vt 0.427595 0.592310
vt 0.552246 0.588716
vt 0.427185 0.586085
vt 0.552324 0.582496
vt 0.426473 0.583048
vt 0.552870 0.579433
vt 0.426724 0.592645
vt 0.553127 0.588999
vt 0.425919 0.599083
vt 0.554266 0.595360
vt 0.405751 0.326091
vt 0.409120 0.379945
vt 0.528162 0.391966
vt 0.552989 0.349726
vt 0.404865 0.307938
vt 0.559795 0.304602
vt 0.404731 0.285537
vt 0.558746 0.282309
vt 0.397388 0.180502
vt 0.405876 0.248562
vt 0.457555 0.247528
vt 0.441829 0.179690
vt 0.397573 0.168461
vt 0.440547 0.167689
vt 0.399264 0.161983
vt 0.443248 0.161200
vt 0.403490 0.168295
vt 0.450797 0.167446
vt 0.408885 0.191429
vt 0.458350 0.190512
vt 0.447858 0.471578
vt 0.447699 0.457600
vt 0.525158 0.455633
vt 0.525738 0.469572
vt 0.414982 0.182702
vt 0.412883 0.179559
vt 0.545073 0.177147
vt 0.543156 0.180353
vt 0.515535 0.178344
vt 0.508109 0.246516
vt 0.555663 0.245565
vt 0.560490 0.177523
vt 0.515898 0.166336
vt 0.559671 0.165550
vt 0.517415 0.189416
vt 0.513453 0.159951
vt 0.557655 0.159165
vt 0.513673 0.166317
vt 0.553798 0.165597
vt 0.549666 0.188818
vt 0.553115 0.350667
vt 0.552796 0.344074
vt 0.544119 0.344269
vt 0.544419 0.350864
vt 0.413595 0.343056
vt 0.414077 0.352879
vt 0.422824 0.352680
vt 0.422369 0.342859
vt 0.556016 0.330562
vt 0.556549 0.339741
vt 0.547388 0.339947
vt 0.546891 0.330765
vt 0.553776 0.329455
vt 0.554500 0.326217
vt 0.545551 0.326415
vt 0.544927 0.329651
vt 0.556538 0.353807
vt 0.555883 0.361317
vt 0.546877 0.361524
vt 0.547425 0.354015
vt 0.554147 0.359800
vt 0.545352 0.360001
vt 0.553051 0.334645
vt 0.544310 0.334840
vt 0.556701 0.348140
vt 0.547549 0.348347
vt 0.555024 0.361099
vt 0.546124 0.361303
vt 0.410010 0.344552
vt 0.410001 0.337169
vt 0.419208 0.336964
vt 0.419240 0.344344
vt 0.413791 0.361294
vt 0.422602 0.361092
vt 0.410296 0.332874
vt 0.419451 0.332671
vt 0.413296 0.364569
vt 0.422180 0.364365
vt 0.410844 0.331388
vt 0.419925 0.331187
vt 0.412651 0.366203
vt 0.421621 0.365996
vt 0.411438 0.330464
vt 0.420441 0.330265
vt 0.411972 0.365201
vt 0.421024 0.364993
vt 0.412359 0.333207
vt 0.421256 0.333010
vt 0.411330 0.361583
vt 0.420451 0.361374
vt 0.412691 0.335280
vt 0.421553 0.335083
vt 0.410373 0.352377
vt 0.419583 0.352169
vt 0.457337 0.214804
vt 0.446719 0.196251
vt 0.516032 0.194955
vt 0.510351 0.213787
vt 0.458074 0.221965
vt 0.508400 0.220991
vt 0.464083 0.266788
vt 0.501521 0.266020
vt 0.471023 0.372437
vt 0.500432 0.371754
vt 0.467901 0.402185
vt 0.506691 0.401255
vt 0.452775 0.440849
vt 0.519838 0.439175
vt 0.437471 0.186076
vt 0.528526 0.184398
vt 0.516383 0.506886
vt 0.522626 0.551379
vt 0.521276 0.527923
vt 0.520036 0.574498
vt 0.508686 0.490446
vt 0.513601 0.594211
vt 0.499114 0.480115
vt 0.504010 0.607614
vt 0.488692 0.476760
vt 0.492522 0.612582
vt 0.478468 0.480652
vt 0.480766 0.608295
vt 0.469479 0.491476
vt 0.470418 0.595461
vt 0.462703 0.508320
vt 0.462863 0.576125
vt 0.458991 0.529620
vt 0.458963 0.553153
vt 0.660918 0.244880
vt 0.687270 0.190014
vt 0.654041 0.250374
vt 0.667514 0.243503
vt 0.703354 0.206993
vt 0.674024 0.242744
vt 0.680349 0.245023
vt 0.686291 0.250703
vt 0.709667 0.222929
vt 0.689299 0.257975
vt 0.687903 0.268593
vt 0.722503 0.273963
vt 0.686883 0.256274
vt 0.663896 0.279430
vt 0.656919 0.272951
vt 0.667375 0.286304
vt 0.667448 0.291758
vt 0.663738 0.300457
vt 0.696792 0.302655
vt 0.416941 0.530150
vt 0.193820 0.492648
vt 0.338243 0.204049
vt 0.280251 0.281612
vt 0.179846 0.558256
vt 0.263186 0.400569
vt 0.181513 0.639027
vt 0.255810 0.450628
vt 0.247524 0.510188
vt 0.266427 0.477425
vt 0.188090 0.651387
vt 0.233417 0.549978
vt 0.196655 0.667484
vt 0.242104 0.562070
vt 0.244759 0.592695
vt 0.267024 0.525923
vt 0.280062 0.410577
vt 0.353186 0.191575
vt 0.321245 0.297687
vt 0.399803 0.159417
vt 0.399457 0.188427
vt 0.450598 0.138855
vt 0.437887 0.158837
vt 0.482510 0.129619
vt 0.452736 0.448079
vt 0.528767 0.628401
vt 0.452817 0.632726
vt 0.452899 0.521002
vt 0.520199 0.516442
vt 0.334617 0.311034
vt 0.296584 0.421793
vt 0.282556 0.407167
vt 0.408598 0.215157
vt 0.282139 0.481560
vt 0.667775 0.225903
vt 0.631007 0.285298
vt 0.632680 0.201780
vt 0.636471 0.278402
vt 0.642303 0.273404
vt 0.681713 0.241716
vt 0.274121 0.520234
vt 0.258529 0.512780
vt 0.444169 0.189750
vt 0.256177 0.574267
vt 0.292663 0.622996
vt 0.485306 0.164878
vt 0.508077 0.159166
vt 0.320519 0.651044
vt 0.561799 0.163348
vt 0.488331 0.390375
vt 0.414698 0.696109
vt 0.597042 0.139445
vt 0.499058 0.442341
vt 0.492779 0.497808
vt 0.490966 0.540433
vt 0.428302 0.695507
vt 0.484037 0.574970
vt 0.449551 0.673280
vt 0.468027 0.633142
vt 0.256073 0.538156
vt 0.244944 0.547955
vt 0.276698 0.460326
vt 0.629593 0.131162
vt 0.506932 0.382384
vt 0.631021 0.294770
vt 0.657512 0.501690
vt 0.647540 0.134338
vt 0.656740 0.142479
vt 0.635767 0.299817
vt 0.647775 0.304779
vt 0.656073 0.303052
vt 0.742141 0.444957
vt 0.670979 0.549535
vt 0.694671 0.540730
vt 0.698894 0.533228
vt 0.704311 0.542001
vt 0.716740 0.540617
vt 0.695891 0.548366
vt 0.287157 0.645273
vt 0.507531 0.122378
vt 0.319163 0.675264
vt 0.567266 0.124874
vt 0.494850 0.379538
vt 0.425388 0.721480
vt 0.605392 0.096966
vt 0.508816 0.436731
vt 0.504064 0.498485
vt 0.503752 0.545822
vt 0.440448 0.720270
vt 0.497446 0.584394
vt 0.463124 0.694777
vt 0.482012 0.649535
vt 0.641156 0.086484
vt 0.515158 0.369935
vt 0.649937 0.262886
vt 0.686880 0.496224
vt 0.647393 0.164664
vt 0.661183 0.089290
vt 0.671709 0.097951
vt 0.652460 0.253246
vt 0.653528 0.272640
vt 0.663734 0.278142
vt 0.671476 0.278687
vt 0.679162 0.277343
vt 0.684835 0.273864
vt 0.703719 0.548740
vt 0.729639 0.538033
vt 0.731296 0.546451
vt 0.734022 0.529546
vt 0.779048 0.486874
vt 0.740379 0.539057
vt 0.754105 0.537028
vt 0.366821 0.216494
vt 0.409848 0.189039
vt 0.456265 0.172163
vt 0.352958 0.227246
vt 0.213536 0.482507
vt 0.298215 0.295228
vt 0.198825 0.541147
vt 0.197712 0.613950
vt 0.210429 0.640071
vt 0.229029 0.657773
vt 0.529106 0.788855
vt 0.524214 0.564198
vt 0.559624 0.727488
vt 0.566498 0.769026
vt 0.555944 0.819760
vt 0.542585 0.575020
vt 0.586660 0.755516
vt 0.596615 0.796283
vt 0.217984 0.686371
vt 0.557304 0.578744
s 1
usemtl Material_004
f 1/1/1 2/2/2 3/3/3
f 4/4/4 5/5/5 6/6/6
f 7/7/7 8/8/8 9/9/9
f 7/7/7 9/9/9 10/10/10
f 11/11/11 12/12/11 13/13/12
f 11/11/11 13/13/12 14/14/12
f 15/15/13 16/16/14 17/17/15
f 15/15/13 17/17/15 18/18/16
f 19/19/17 20/20/18 21/21/19
f 19/19/17 21/21/19 22/22/20
f 23/23/21 24/24/22 8/8/8
f 23/23/21 8/8/8 7/7/7
f 25/25/23 26/26/23 12/12/11
f 25/25/23 12/12/11 11/11/11
f 27/27/24 15/15/13 18/18/16
f 27/27/24 18/18/16 28/28/25
f 29/29/26 30/30/27 31/31/28
f 29/29/26 31/31/28 32/32/29
f 33/33/30 34/34/31 24/24/22
f 33/33/30 24/24/22 23/23/21
f 35/35/32 36/36/32 26/26/23
f 35/35/32 26/26/23 25/25/23
f 37/37/33 27/27/24 28/28/25
f 37/37/33 28/28/25 38/38/34
f 39/39/35 19/19/17 22/22/20
f 39/39/35 22/22/20 40/40/36
f 41/41/37 42/42/38 34/34/31
f 41/41/37 34/34/31 33/33/30
f 43/43/39 44/44/39 36/36/32
f 43/43/39 36/36/32 35/35/32
f 45/45/40 37/37/33 38/38/34
f 45/45/40 38/38/34 46/46/41
f 47/47/42 29/29/26 32/32/29
f 47/47/42 32/32/29 48/48/43
f 49/49/44 50/50/45 42/42/38
f 49/49/44 42/42/38 41/41/37
f 51/51/46 52/52/46 44/44/39
f 51/51/46 44/44/39 43/43/39
f 53/53/47 45/45/40 46/46/41
f 53/53/47 46/46/41 54/54/48
f 55/55/49 39/39/35 40/40/36
f 55/55/49 40/40/36 56/56/50
f 57/57/51 58/58/52 50/50/45
f 57/57/51 50/50/45 49/49/44
f 59/59/53 60/60/53 52/52/46
f 59/59/53 52/52/46 51/51/46
f 61/61/54 53/53/47 54/54/48
f 61/61/54 54/54/48 62/62/55
f 63/63/56 47/47/42 48/48/43
f 63/63/56 48/48/43 64/64/57
f 65/65/58 66/66/59 58/58/52
f 65/65/58 58/58/52 57/57/51
f 67/67/60 68/68/60 60/60/53
f 67/67/60 60/60/53 59/59/53
f 69/69/61 61/61/54 62/62/55
f 69/69/61 62/62/55 70/70/62
f 71/71/63 55/55/49 56/56/50
f 71/71/63 56/56/50 72/72/64
f 73/73/65 74/74/66 66/66/59
f 73/73/65 66/66/59 65/65/58
f 75/75/67 76/76/67 68/68/60
f 75/75/67 68/68/60 67/67/60
f 77/77/68 69/69/61 70/70/62
f 77/77/68 70/70/62 78/78/69
f 79/79/70 63/63/56 64/64/57
f 79/79/70 64/64/57 80/80/71
f 81/81/72 82/82/73 74/74/66
f 81/81/72 74/74/66 73/73/65
f 83/83/74 84/84/74 76/76/67
f 83/83/74 76/76/67 75/75/67
f 85/85/75 77/77/68 78/78/69
f 85/85/75 78/78/69 86/86/76
f 87/87/77 71/71/63 72/72/64
f 87/87/77 72/72/64 88/88/78
f 89/89/79 90/90/80 82/82/73
f 89/89/79 82/82/73 81/81/72
f 91/91/81 92/92/81 84/84/74
f 91/91/81 84/84/74 83/83/74
f 93/93/82 85/85/75 86/86/76
f 93/93/82 86/86/76 94/94/83
f 95/95/84 79/79/70 80/80/71
f 95/95/84 80/80/71 96/96/85
f 97/97/86 98/98/87 90/90/80
f 97/97/86 90/90/80 89/89/79
f 99/99/88 100/100/88 92/92/81
f 99/99/88 92/92/81 91/91/81
f 101/101/89 93/93/82 94/94/83
f 101/101/89 94/94/83 102/102/90
f 103/103/91 87/87/77 88/88/78
f 103/103/91 88/88/78 104/104/92
f 105/105/93 106/106/94 98/98/87
f 105/105/93 98/98/87 97/97/86
f 107/107/95 108/108/95 100/100/88
f 107/107/95 100/100/88 99/99/88
f 109/109/96 101/101/89 102/102/90
f 109/109/96 102/102/90 110/110/97
f 111/111/98 95/95/84 96/96/85
f 111/111/98 96/96/85 112/112/99
f 113/113/100 114/114/101 106/106/94
f 113/113/100 106/106/94 105/105/93
f 115/115/102 116/116/102 108/108/95
f 115/115/102 108/108/95 107/107/95
f 117/117/103 109/109/96 110/110/97
f 117/117/103 110/110/97 118/118/104
f 119/119/105 103/103/91 104/104/92
f 119/119/105 104/104/92 120/120/106
f 121/121/107 122/122/108 114/114/101
f 121/121/107 114/114/101 113/113/100
f 123/123/109 124/124/109 116/116/102
f 123/123/109 116/116/102 115/115/102
f 125/125/110 117/117/103 118/118/104
f 125/125/110 118/118/104 126/126/111
f 127/127/112 111/111/98 112/112/99
f 127/127/112 112/112/99 128/128/113
f 129/129/114 130/130/115 122/122/108
f 129/129/114 122/122/108 121/121/107
f 131/131/116 132/132/116 124/124/109
f 131/131/116 124/124/109 123/123/109
f 133/133/117 125/125/110 126/126/111
f 133/133/117 126/126/111 134/134/118
f 135/135/119 119/119/105 120/120/106
f 135/135/119 120/120/106 136/136/120
f 137/137/121 138/138/122 130/130/115
f 137/137/121 130/130/115 129/129/114
f 139/139/123 140/140/123 132/132/116
f 139/139/123 132/132/116 131/131/116
f 141/141/124 133/133/117 134/134/118
f 141/141/124 134/134/118 142/142/125
f 143/143/126 144/144/127 136/136/120
f 143/143/126 136/136/120 127/127/112
f 145/145/128 146/146/129 138/138/122
f 145/145/128 138/138/122 137/137/121
f 147/147/130 148/148/130 140/140/123
f 147/147/130 140/140/123 139/139/123
f 144/144/127 149/149/131 135/135/119
f 144/144/127 135/135/119 136/136/120
f 150/150/132 151/151/133 128/128/113
f 150/150/132 128/128/113 141/141/124
f 10/10/10 9/9/9 146/146/129
f 10/10/10 146/146/129 145/145/128
f 14/14/12 13/13/12 148/148/130
f 14/14/12 148/148/130 147/147/130
f 152/152/134 149/149/131 144/144/127
f 152/152/134 144/144/127 153/153/135
f 154/154/136 143/143/126 151/151/133
f 154/154/136 151/151/133 155/155/137
f 156/9/138 157/14/138 158/147/139
f 156/9/138 158/147/139 159/146/139
f 159/146/139 158/147/139 160/139/140
f 159/146/139 160/139/140 161/138/140
f 161/138/140 160/139/140 162/131/141
f 161/138/140 162/131/141 163/130/141
f 163/130/141 162/131/141 164/123/142
f 163/130/141 164/123/142 165/122/142
f 165/122/142 164/123/142 166/115/143
f 165/122/142 166/115/143 167/114/143
f 167/114/143 166/115/143 168/107/144
f 167/114/143 168/107/144 169/106/144
f 169/106/144 168/107/144 170/99/145
f 169/106/144 170/99/145 171/98/145
f 171/98/145 170/99/145 172/91/146
f 171/98/145 172/91/146 173/90/146
f 173/90/146 172/91/146 174/83/147
f 173/90/146 174/83/147 175/82/147
f 175/82/147 174/83/147 176/75/148
f 175/82/147 176/75/148 177/74/148
f 177/74/148 176/75/148 178/67/149
f 177/74/148 178/67/149 179/66/149
f 179/66/149 178/67/149 180/59/150
f 179/66/149 180/59/150 181/58/150
f 181/58/150 180/59/150 182/51/151
f 181/58/150 182/51/151 183/50/151
f 183/50/151 182/51/151 184/43/152
f 183/50/151 184/43/152 185/42/152
f 185/42/152 184/43/152 186/35/153
f 185/42/152 186/35/153 187/34/153
f 187/34/153 186/35/153 188/25/154
f 187/34/153 188/25/154 189/24/154
f 189/24/154 188/25/154 190/11/155
f 189/24/154 190/11/155 191/8/155
f 191/8/155 190/11/155 157/14/138
f 191/8/155 157/14/138 156/9/138
f 192/148/156 193/156/157 194/157/158
f 192/148/156 194/157/158 195/140/159
f 196/158/160 197/159/161 198/160/162
f 196/158/160 198/160/162 193/156/157
f 197/159/161 199/161/163 200/162/164
f 197/159/161 200/162/164 198/160/162
f 199/161/163 201/163/165 202/164/166
f 199/161/163 202/164/166 200/162/164
f 201/163/165 203/165/167 142/142/125
f 201/163/165 142/142/125 202/164/166
f 195/140/159 194/157/158 204/166/168
f 195/140/159 204/166/168 205/132/169
f 206/167/170 154/154/136 155/155/137
f 206/167/170 155/155/137 207/168/171
f 193/156/157 198/160/162 208/169/172
f 193/156/157 208/169/172 194/157/158
f 198/160/162 200/162/164 209/170/173
f 198/160/162 209/170/173 208/169/172
f 200/162/164 202/164/166 210/171/174
f 200/162/164 210/171/174 209/170/173
f 202/164/166 142/142/125 134/134/118
f 202/164/166 134/134/118 210/171/174
f 205/132/169 204/166/168 211/172/175
f 205/132/169 211/172/175 212/124/176
f 213/173/177 152/152/134 153/153/135
f 213/173/177 153/153/135 214/174/178
f 194/157/158 208/169/172 215/175/179
f 194/157/158 215/175/179 204/166/168
f 208/169/172 209/170/173 216/176/180
f 208/169/172 216/176/180 215/175/179
f 209/170/173 210/171/174 217/177/181
f 209/170/173 217/177/181 216/176/180
f 210/171/174 134/134/118 126/126/111
f 210/171/174 126/126/111 217/177/181
f 212/124/176 211/172/175 218/178/182
f 212/124/176 218/178/182 219/116/183
f 220/179/184 206/167/170 207/168/171
f 220/179/184 207/168/171 221/180/185
f 204/166/168 215/175/179 222/181/186
f 204/166/168 222/181/186 211/172/175
f 215/175/179 216/176/180 223/182/187
f 215/175/179 223/182/187 222/181/186
f 216/176/180 217/177/181 224/183/188
f 216/176/180 224/183/188 223/182/187
f 217/177/181 126/126/111 118/118/104
f 217/177/181 118/118/104 224/183/188
f 219/116/183 218/178/182 225/184/189
f 219/116/183 225/184/189 226/108/190
f 227/185/191 213/173/177 214/174/178
f 227/185/191 214/174/178 228/186/192
f 211/172/175 222/181/186 229/187/193
f 211/172/175 229/187/193 218/178/182
f 222/181/186 223/182/187 230/188/194
f 222/181/186 230/188/194 229/187/193
f 223/182/187 224/183/188 231/189/195
f 223/182/187 231/189/195 230/188/194
f 224/183/188 118/118/104 110/110/97
f 224/183/188 110/110/97 231/189/195
f 226/108/190 225/184/189 232/190/196
f 226/108/190 232/190/196 233/100/197
f 234/191/198 220/179/184 221/180/185
f 234/191/198 221/180/185 235/192/199
f 218/178/182 229/187/193 236/193/200
f 218/178/182 236/193/200 225/184/189
f 229/187/193 230/188/194 237/194/201
f 229/187/193 237/194/201 236/193/200
f 230/188/194 231/189/195 238/195/202
f 230/188/194 238/195/202 237/194/201
f 231/189/195 110/110/97 102/102/90
f 231/189/195 102/102/90 238/195/202
f 233/100/197 232/190/196 239/196/203
f 233/100/197 239/196/203 240/92/204
f 241/197/205 227/185/191 228/186/192
f 241/197/205 228/186/192 242/198/206
f 225/184/189 236/193/200 243/199/207
f 225/184/189 243/199/207 232/190/196
f 236/193/200 237/194/201 244/200/208
f 236/193/200 244/200/208 243/199/207
f 237/194/201 238/195/202 245/201/209
f 237/194/201 245/201/209 244/200/208
f 238/195/202 102/102/90 94/94/83
f 238/195/202 94/94/83 245/201/209
f 240/92/204 239/196/203 246/202/210
f 240/92/204 246/202/210 247/84/211
f 248/203/212 234/191/198 235/192/199
f 248/203/212 235/192/199 249/204/213
f 232/190/196 243/199/207 250/205/214
f 232/190/196 250/205/214 239/196/203
f 243/199/207 244/200/208 251/206/215
f 243/199/207 251/206/215 250/205/214
f 244/200/208 245/201/209 252/207/216
f 244/200/208 252/207/216 251/206/215
f 245/201/209 94/94/83 86/86/76
f 245/201/209 86/86/76 252/207/216
f 247/84/211 246/202/210 253/208/217
f 247/84/211 253/208/217 254/76/218
f 255/209/219 241/197/205 242/198/206
f 255/209/219 242/198/206 256/210/220
f 239/196/203 250/205/214 257/211/221
f 239/196/203 257/211/221 246/202/210
f 250/205/214 251/206/215 258/212/222
f 250/205/214 258/212/222 257/211/221
f 251/206/215 252/207/216 259/213/223
f 251/206/215 259/213/223 258/212/222
f 252/207/216 86/86/76 78/78/69
f 252/207/216 78/78/69 259/213/223
f 254/76/218 253/208/217 260/214/224
f 254/76/218 260/214/224 261/68/225
f 262/215/226 248/203/212 249/204/213
f 262/215/226 249/204/213 263/216/227
f 246/202/210 257/211/221 264/217/228
f 246/202/210 264/217/228 253/208/217
f 257/211/221 258/212/222 265/218/229
f 257/211/221 265/218/229 264/217/228
f 258/212/222 259/213/223 266/219/230
f 258/212/222 266/219/230 265/218/229
f 259/213/223 78/78/69 70/70/62
f 259/213/223 70/70/62 266/219/230
f 261/68/225 260/214/224 267/220/231
f 261/68/225 267/220/231 268/60/232
f 269/221/233 255/209/219 256/210/220
f 269/221/233 256/210/220 270/222/234
f 253/208/217 264/217/228 271/223/235
f 253/208/217 271/223/235 260/214/224
f 264/217/228 265/218/229 272/224/236
f 264/217/228 272/224/236 271/223/235
f 265/218/229 266/219/230 273/225/237
f 265/218/229 273/225/237 272/224/236
f 266/219/230 70/70/62 62/62/55
f 266/219/230 62/62/55 273/225/237
f 268/60/232 267/220/231 274/226/238
f 268/60/232 274/226/238 275/52/239
f 276/227/240 262/215/226 263/216/227
f 276/227/240 263/216/227 277/228/241
f 260/214/224 271/223/235 278/229/242
f 260/214/224 278/229/242 267/220/231
f 271/223/235 272/224/236 279/230/243
f 271/223/235 279/230/243 278/229/242
f 272/224/236 273/225/237 280/231/244
f 272/224/236 280/231/244 279/230/243
f 273/225/237 62/62/55 54/54/48
f 273/225/237 54/54/48 280/231/244
f 275/52/239 274/226/238 281/232/245
f 275/52/239 281/232/245 282/44/246
f 283/233/247 269/221/233 270/222/234
f 283/233/247 270/222/234 284/234/248
f 267/220/231 278/229/242 285/235/249
f 267/220/231 285/235/249 274/226/238
f 278/229/242 279/230/243 286/236/250
f 278/229/242 286/236/250 285/235/249
f 279/230/243 280/231/244 287/237/251
f 279/230/243 287/237/251 286/236/250
f 280/231/244 54/54/48 46/46/41
f 280/231/244 46/46/41 287/237/251
f 282/44/246 281/232/245 288/238/252
f 282/44/246 288/238/252 289/36/253
f 290/239/254 276/227/240 277/228/241
f 290/239/254 277/228/241 291/240/255
f 274/226/238 285/235/249 292/241/256
f 274/226/238 292/241/256 281/232/245
f 285/235/249 286/236/250 293/242/257
f 285/235/249 293/242/257 292/241/256
f 286/236/250 287/237/251 294/243/258
f 286/236/250 294/243/258 293/242/257
f 287/237/251 46/46/41 38/38/34
f 287/237/251 38/38/34 294/243/258
f 289/36/253 288/238/252 295/244/259
f 289/36/253 295/244/259 296/26/260
f 297/245/261 283/233/247 284/234/248
f 297/245/261 284/234/248 298/246/262
f 281/232/245 292/241/256 299/247/263
f 281/232/245 299/247/263 288/238/252
f 292/241/256 293/242/257 300/248/264
f 292/241/256 300/248/264 299/247/263
f 293/242/257 294/243/258 301/249/265
f 293/242/257 301/249/265 300/248/264
f 294/243/258 38/38/34 28/28/25
f 294/243/258 28/28/25 301/249/265
f 296/26/260 295/244/259 302/250/266
f 296/26/260 302/250/266 303/12/267
f 304/251/268 290/239/254 291/240/255
f 304/251/268 291/240/255 305/252/269
f 288/238/252 299/247/263 306/253/270
f 288/238/252 306/253/270 295/244/259
f 299/247/263 300/248/264 307/254/271
f 299/247/263 307/254/271 306/253/270
f 300/248/264 301/249/265 308/255/272
f 300/248/264 308/255/272 307/254/271
f 301/249/265 28/28/25 18/18/16
f 301/249/265 18/18/16 308/255/272
f 303/12/267 302/250/266 196/158/160
f 303/12/267 196/158/160 309/13/273
f 20/20/18 297/245/261 298/246/262
f 20/20/18 298/246/262 21/21/19
f 295/244/259 306/253/270 310/256/274
f 295/244/259 310/256/274 302/250/266
f 306/253/270 307/254/271 311/257/275
f 306/253/270 311/257/275 310/256/274
f 307/254/271 308/255/272 312/258/276
f 307/254/271 312/258/276 311/257/275
f 308/255/272 18/18/16 17/17/15
f 308/255/272 17/17/15 312/258/276
f 16/16/14 150/150/132 203/165/167
f 16/16/14 203/165/167 17/17/15
f 30/30/27 304/251/268 305/252/269
f 30/30/27 305/252/269 31/31/28
f 302/250/266 310/256/274 197/159/161
f 302/250/266 197/159/161 196/158/160
f 310/256/274 311/257/275 199/161/163
f 310/256/274 199/161/163 197/159/161
f 311/257/275 312/258/276 201/163/165
f 311/257/275 201/163/165 199/161/163
f 312/258/276 17/17/15 203/165/167
f 312/258/276 203/165/167 201/163/165
f 309/13/273 196/158/160 193/156/157
f 309/13/273 193/156/157 192/148/156
f 149/149/131 313/259/277 314/260/278
f 149/149/131 314/260/278 135/135/119
f 313/259/277 315/261/279 316/262/280
f 313/259/277 316/262/280 314/260/278
f 135/135/119 314/260/278 317/263/281
f 135/135/119 317/263/281 119/119/105
f 314/260/278 316/262/280 318/264/282
f 314/260/278 318/264/282 317/263/281
f 119/119/105 317/263/281 319/265/283
f 119/119/105 319/265/283 103/103/91
f 317/263/281 318/264/282 320/266/284
f 317/263/281 320/266/284 319/265/283
f 103/103/91 319/265/283 321/267/285
f 103/103/91 321/267/285 87/87/77
f 319/265/283 320/266/284 322/268/286
f 319/265/283 322/268/286 321/267/285
f 87/87/77 321/267/285 323/269/287
f 87/87/77 323/269/287 71/71/63
f 321/267/285 322/268/286 324/270/288
f 321/267/285 324/270/288 323/269/287
f 71/71/63 323/269/287 325/271/289
f 71/71/63 325/271/289 55/55/49
f 323/269/287 324/270/288 326/272/290
f 323/269/287 326/272/290 325/271/289
f 55/55/49 325/271/289 327/273/291
f 55/55/49 327/273/291 39/39/35
f 325/271/289 326/272/290 328/274/292
f 325/271/289 328/274/292 327/273/291
f 39/39/35 327/273/291 329/275/293
f 39/39/35 329/275/293 19/19/17
f 327/273/291 328/274/292 330/276/294
f 327/273/291 330/276/294 329/275/293
f 19/19/17 329/275/293 331/277/295
f 19/19/17 331/277/295 20/20/18
f 329/275/293 330/276/294 332/278/296
f 329/275/293 332/278/296 331/277/295
f 20/20/18 331/277/295 333/279/297
f 20/20/18 333/279/297 297/245/261
f 331/277/295 332/278/296 334/280/298
f 331/277/295 334/280/298 333/279/297
f 297/245/261 333/279/297 335/281/299
f 297/245/261 335/281/299 283/233/247
f 333/279/297 334/280/298 336/282/300
f 333/279/297 336/282/300 335/281/299
f 283/233/247 335/281/299 337/283/301
f 283/233/247 337/283/301 269/221/233
f 335/281/299 336/282/300 338/284/302
f 335/281/299 338/284/302 337/283/301
f 269/221/233 337/283/301 339/285/303
f 269/221/233 339/285/303 255/209/219
f 337/283/301 338/284/302 340/286/304
f 337/283/301 340/286/304 339/285/303
f 255/209/219 339/285/303 341/287/305
f 255/209/219 341/287/305 241/197/205
f 339/285/303 340/286/304 342/288/306
f 339/285/303 342/288/306 341/287/305
f 241/197/205 341/287/305 343/289/307
f 241/197/205 343/289/307 227/185/191
f 341/287/305 342/288/306 344/290/308
f 341/287/305 344/290/308 343/289/307
f 227/185/191 343/289/307 345/291/309
f 227/185/191 345/291/309 213/173/177
f 343/289/307 344/290/308 346/292/310
f 343/289/307 346/292/310 345/291/309
f 213/173/177 345/291/309 347/293/311
f 213/173/177 347/293/311 152/152/134
f 345/291/309 346/292/310 348/294/312
f 345/291/309 348/294/312 347/293/311
f 152/152/134 347/293/311 313/259/277
f 152/152/134 313/259/277 149/149/131
f 347/293/311 348/294/312 315/261/279
f 347/293/311 315/261/279 313/259/277
f 155/155/137 151/151/133 150/150/132
f 155/155/137 150/150/132 16/16/14
f 203/165/167 150/150/132 141/141/124
f 203/165/167 141/141/124 142/142/125
f 128/128/113 112/112/99 133/133/117
f 128/128/113 133/133/117 141/141/124
f 112/112/99 96/96/85 125/125/110
f 112/112/99 125/125/110 133/133/117
f 96/96/85 80/80/71 117/117/103
f 96/96/85 117/117/103 125/125/110
f 80/80/71 64/64/57 109/109/96
f 80/80/71 109/109/96 117/117/103
f 64/64/57 48/48/43 101/101/89
f 64/64/57 101/101/89 109/109/96
f 48/48/43 32/32/29 93/93/82
f 48/48/43 93/93/82 101/101/89
f 32/32/29 31/31/28 85/85/75
f 32/32/29 85/85/75 93/93/82
f 31/31/28 305/252/269 77/77/68
f 31/31/28 77/77/68 85/85/75
f 305/252/269 291/240/255 69/69/61
f 305/252/269 69/69/61 77/77/68
f 291/240/255 277/228/241 61/61/54
f 291/240/255 61/61/54 69/69/61
f 277/228/241 263/216/227 53/53/47
f 277/228/241 53/53/47 61/61/54
f 263/216/227 249/204/213 45/45/40
f 263/216/227 45/45/40 53/53/47
f 249/204/213 235/192/199 37/37/33
f 249/204/213 37/37/33 45/45/40
f 235/192/199 221/180/185 27/27/24
f 235/192/199 27/27/24 37/37/33
f 221/180/185 207/168/171 15/15/13
f 221/180/185 15/15/13 27/27/24
f 207/168/171 155/155/137 16/16/14
f 207/168/171 16/16/14 15/15/13
f 22/22/20 21/21/19 304/251/268
f 22/22/20 304/251/268 30/30/27
f 21/21/19 298/246/262 290/239/254
f 21/21/19 290/239/254 304/251/268
f 298/246/262 284/234/248 276/227/240
f 298/246/262 276/227/240 290/239/254
f 284/234/248 270/222/234 262/215/226
f 284/234/248 262/215/226 276/227/240
f 270/222/234 256/210/220 248/203/212
f 270/222/234 248/203/212 262/215/226
f 256/210/220 242/198/206 234/191/198
f 256/210/220 234/191/198 248/203/212
f 242/198/206 228/186/192 220/179/184
f 242/198/206 220/179/184 234/191/198
f 228/186/192 214/174/178 206/167/170
f 228/186/192 206/167/170 220/179/184
f 214/174/178 153/153/135 154/154/136
f 214/174/178 154/154/136 206/167/170
f 153/153/135 144/144/127 143/143/126
f 153/153/135 143/143/126 154/154/136
f 151/151/133 143/143/126 127/127/112
f 151/151/133 127/127/112 128/128/113
f 136/136/120 120/120/106 111/111/98
f 136/136/120 111/111/98 127/127/112
f 120/120/106 104/104/92 95/95/84
f 120/120/106 95/95/84 111/111/98
f 104/104/92 88/88/78 79/79/70
f 104/104/92 79/79/70 95/95/84
f 88/88/78 72/72/64 63/63/56
f 88/88/78 63/63/56 79/79/70
f 72/72/64 56/56/50 47/47/42
f 72/72/64 47/47/42 63/63/56
f 56/56/50 40/40/36 29/29/26
f 56/56/50 29/29/26 47/47/42
f 40/40/36 22/22/20 30/30/27
f 40/40/36 30/30/27 29/29/26
f 315/261/279 349/295/313 350/296/314
f 315/261/279 350/296/314 316/262/280
f 350/296/314 351/297/315 318/264/282
f 350/296/314 318/264/282 316/262/280
f 351/297/315 352/298/316 320/266/284
f 351/297/315 320/266/284 318/264/282
f 352/298/316 353/299/317 322/268/286
f 352/298/316 322/268/286 320/266/284
f 353/299/317 354/300/318 324/270/288
f 353/299/317 324/270/288 322/268/286
f 354/300/318 355/301/319 326/272/290
f 354/300/318 326/272/290 324/270/288
f 355/301/319 356/302/320 328/274/292
f 355/301/319 328/274/292 326/272/290
f 356/302/320 357/303/321 330/276/294
f 356/302/320 330/276/294 328/274/292
f 357/303/321 358/304/322 332/278/296
f 357/303/321 332/278/296 330/276/294
f 358/304/322 359/305/323 334/280/298
f 358/304/322 334/280/298 332/278/296
f 359/305/323 360/306/324 336/282/300
f 359/305/323 336/282/300 334/280/298
f 360/306/324 361/307/325 338/284/302
f 360/306/324 338/284/302 336/282/300
f 361/307/325 362/308/326 340/286/304
f 361/307/325 340/286/304 338/284/302
f 362/308/326 363/309/327 342/288/306
f 362/308/326 342/288/306 340/286/304
f 363/309/327 364/310/328 344/290/308
f 363/309/327 344/290/308 342/288/306
f 364/310/328 365/311/329 346/292/310
f 364/310/328 346/292/310 344/290/308
f 365/311/329 366/312/330 348/294/312
f 365/311/329 348/294/312 346/292/310
f 366/312/330 349/295/313 315/261/279
f 366/312/330 315/261/279 348/294/312
f 367/313/331 368/314/331 369/315/331
f 367/313/331 369/315/331 370/316/331
f 371/317/332 372/318/333 373/319/333
f 371/317/332 373/319/333 374/320/332
f 375/321/334 376/317/334 377/320/334
f 375/321/334 377/320/334 378/322/334
f 379/323/335 380/321/336 381/322/336
f 379/323/335 381/322/336 382/324/335
f 383/325/337 379/323/335 382/324/335
f 383/325/337 382/324/335 384/326/337
f 385/327/338 386/325/338 387/326/338
f 385/327/338 387/326/338 388/328/338
f 389/329/339 390/327/340 391/328/340
f 389/329/339 391/328/340 392/330/339
f 393/331/341 389/329/339 392/330/339
f 393/331/341 392/330/339 394/332/342
f 395/333/343 396/331/343 397/332/343
f 395/333/343 397/332/343 398/334/343
f 399/335/344 400/333/344 401/334/344
f 399/335/344 401/334/344 402/336/344
f 403/337/345 404/338/346 405/339/346
f 403/337/345 405/339/346 406/340/345
f 407/341/347 403/337/345 406/340/345
f 407/341/347 406/340/345 408/342/347
f 409/343/348 407/341/347 408/342/347
f 409/343/348 408/342/347 410/344/348
f 411/345/349 412/346/349 413/347/349
f 411/345/349 413/347/349 414/348/349
f 415/349/350 416/345/351 417/348/351
f 415/349/350 417/348/351 418/350/352
f 419/351/353 415/349/350 418/350/352
f 419/351/353 418/350/352 420/352/354
f 421/353/355 419/351/353 420/352/354
f 421/353/355 420/352/354 422/354/356
f 423/355/357 421/353/355 422/354/356
f 423/355/357 422/354/356 424/356/358
f 425/357/359 426/358/360 427/359/361
f 425/357/359 427/359/361 428/360/362
f 429/314/363 425/357/359 428/360/362
f 429/314/363 428/360/362 430/315/363
f 431/361/364 432/362/365 433/363/365
f 431/361/364 433/363/365 434/364/364
f 435/365/349 436/366/349 437/367/349
f 435/365/349 437/367/349 438/368/349
f 439/369/366 440/365/351 441/368/351
f 439/369/366 441/368/351 442/370/350
f 443/371/367 424/356/358 444/347/368
f 443/371/367 444/347/368 445/366/369
f 446/372/370 439/369/366 442/370/350
f 446/372/370 442/370/350 447/373/353
f 443/371/367 448/374/371 449/375/355
f 443/371/367 449/375/355 450/376/357
f 448/374/371 446/372/370 447/373/353
f 448/374/371 447/373/353 449/375/355
f 451/377/372 452/378/373 453/379/374
f 451/377/372 453/379/374 454/380/375
f 455/381/376 456/382/377 457/383/378
f 455/381/376 457/383/378 458/384/376
f 459/385/379 460/386/380 461/387/380
f 459/385/379 461/387/380 462/388/379
f 463/389/381 464/390/382 465/391/382
f 463/389/381 465/391/382 466/392/381
f 467/393/383 468/394/384 469/395/384
f 467/393/383 469/395/384 470/396/383
f 471/397/385 451/377/372 454/380/375
f 471/397/385 454/380/375 472/398/386
f 473/399/387 463/389/381 466/392/381
f 473/399/387 466/392/381 474/400/388
f 475/401/389 467/393/383 470/396/383
f 475/401/389 470/396/383 476/402/389
f 477/403/390 471/397/385 472/398/386
f 477/403/390 472/398/386 478/404/391
f 452/378/373 473/399/387 474/400/388
f 452/378/373 474/400/388 453/379/374
f 460/386/380 475/401/389 476/402/389
f 460/386/380 476/402/389 461/387/380
f 464/390/382 459/385/379 462/388/379
f 464/390/382 462/388/379 465/391/382
f 479/394/392 477/403/390 478/404/391
f 479/394/392 478/404/391 480/395/393
f 481/405/394 482/406/395 483/407/395
f 481/405/394 483/407/395 484/408/394
f 456/382/377 485/409/396 486/410/397
f 456/382/377 486/410/397 457/383/378
f 482/406/395 487/411/398 488/412/398
f 482/406/395 488/412/398 483/407/395
f 485/409/396 489/413/399 490/414/400
f 485/409/396 490/414/400 486/410/397
f 487/411/398 491/415/401 492/416/401
f 487/411/398 492/416/401 488/412/398
f 489/413/399 493/417/402 494/418/403
f 489/413/399 494/418/403 490/414/400
f 491/415/401 495/419/404 496/420/404
f 491/415/401 496/420/404 492/416/401
f 493/417/402 497/421/405 498/422/405
f 493/417/402 498/422/405 494/418/403
f 495/419/404 499/423/406 500/424/406
f 495/419/404 500/424/406 496/420/404
f 497/421/405 501/425/407 502/426/407
f 497/421/405 502/426/407 498/422/405
f 499/423/406 503/427/408 504/428/408
f 499/423/406 504/428/408 500/424/406
f 501/425/407 505/429/409 506/430/409
f 501/425/407 506/430/409 502/426/407
f 503/427/408 455/381/376 458/384/376
f 503/427/408 458/384/376 504/428/408
f 505/429/409 481/405/394 484/408/394
f 505/429/409 484/408/394 506/430/409
f 507/431/410 508/432/411 509/433/412
f 507/431/410 509/433/412 510/434/413
f 511/435/414 507/431/410 510/434/413
f 511/435/414 510/434/413 512/436/415
f 513/437/416 511/435/414 512/436/415
f 513/437/416 512/436/415 514/438/417
f 515/439/418 513/437/416 514/438/417
f 515/439/418 514/438/417 516/440/419
f 517/441/420 515/439/418 516/440/419
f 517/441/420 516/440/419 518/442/421
f 519/443/422 517/441/420 518/442/421
f 519/443/422 518/442/421 520/444/423
f 521/445/424 431/361/364 434/364/364
f 521/445/424 434/364/364 522/446/425
f 508/432/411 521/445/424 522/446/425
f 508/432/411 522/446/425 509/433/412
f 33/33/30 49/49/44 41/41/37
f 49/49/44 33/33/30 57/57/51
f 57/57/51 33/33/30 23/23/21
f 57/57/51 23/23/21 65/65/58
f 65/65/58 23/23/21 7/7/7
f 65/65/58 7/7/7 73/73/65
f 73/73/65 7/7/7 10/10/10
f 73/73/65 10/10/10 81/81/72
f 81/81/72 10/10/10 145/145/128
f 81/81/72 145/145/128 89/89/79
f 89/89/79 145/145/128 137/137/121
f 89/89/79 137/137/121 97/97/86
f 97/97/86 137/137/121 129/129/114
f 97/97/86 129/129/114 105/105/93
f 105/105/93 129/129/114 121/121/107
f 105/105/93 121/121/107 113/113/100
f 523/447/426 524/448/426 525/449/426
f 524/448/426 523/447/426 526/450/426
f 526/450/426 523/447/426 527/451/426
f 526/450/426 527/451/426 528/452/426
f 528/452/426 527/451/426 529/453/426
f 528/452/426 529/453/426 530/454/426
f 530/454/426 529/453/426 531/455/426
f 530/454/426 531/455/426 532/456/426
f 532/456/426 531/455/426 533/457/426
f 532/456/426 533/457/426 534/458/426
f 534/458/426 533/457/426 535/459/426
f 534/458/426 535/459/426 536/460/426
f 536/460/426 535/459/426 537/461/426
f 536/460/426 537/461/426 538/462/426
f 538/462/426 537/461/426 539/463/426
f 538/462/426 539/463/426 540/464/426
f 541/465/427 542/466/427 543/467/428
f 542/466/427 541/465/427 544/468/427
f 542/466/427 544/468/427 545/469/427
f 545/469/427 544/468/427 546/470/427
f 545/469/427 546/470/427 547/471/427
f 545/469/427 547/471/427 548/472/427
f 545/469/427 548/472/427 549/473/427
f 549/473/427 548/472/427 550/474/427
f 549/473/427 550/474/427 551/475/427
f 549/473/427 551/475/427 552/476/427
f 553/477/429 554/478/430 555/479/431
f 554/478/430 553/477/429 556/480/430
f 556/480/430 553/477/429 557/481/430
f 557/481/430 553/477/429 558/482/431
f 558/482/431 553/477/429 559/483/432
f 5/5/5 3/3/3 6/6/6
f 3/3/3 5/5/5 560/484/433
f 560/484/433 5/5/5 405/339/346
f 560/484/433 405/339/346 404/338/346
f 445/366/369 410/344/348 561/367/434
f 410/344/348 445/366/369 409/343/348
f 409/343/348 445/366/369 444/347/368
f 409/343/348 444/347/368 562/346/434
f 432/362/365 450/376/357 433/363/365
f 450/376/357 432/362/365 443/371/367
f 443/371/367 432/362/365 424/356/358
f 424/356/358 432/362/365 423/355/357
f 563/485/435 564/486/436 565/487/437
f 564/486/436 563/485/435 566/488/437
f 564/486/436 566/488/437 567/489/438
f 567/489/438 566/488/437 568/490/435
f 567/489/438 568/490/435 569/491/439
f 569/491/439 568/490/435 570/492/439
f 569/491/439 570/492/439 571/493/439
f 570/492/439 568/490/435 572/494/435
f 572/494/435 573/495/439 570/492/439
f 573/495/439 572/494/435 574/496/440
f 573/495/439 574/496/440 575/497/441
f 575/497/441 574/496/440 576/498/442
f 577/499/443 570/492/439 573/495/439
f 578/500/439 567/489/438 569/491/439
f 567/489/438 579/501/444 564/486/436
f 579/501/444 567/489/438 580/502/445
f 579/501/444 580/502/445 581/503/444
f 581/503/444 580/502/445 582/504/443
f 581/503/444 582/504/443 583/505/435
f 583/505/435 582/504/443 584/506/443
f 583/505/435 584/506/443 585/507/446
f 426/358/360 520/444/423 427/359/361
f 520/444/423 426/358/360 586/508/447
f 520/444/423 586/508/447 519/443/422
f 587/509/448 588/313/448 589/316/448
f 588/313/448 587/509/448 590/510/448
f 590/510/448 587/509/448 591/511/448
f 591/511/448 587/509/448 592/512/448
f 591/511/448 592/512/448 372/318/333
f 372/318/333 592/512/448 373/319/333
f 593/513/449 594/514/450 595/515/449
f 594/514/450 593/513/449 596/516/451
f 594/514/450 596/516/451 597/517/449
f 598/518/452 599/519/452 600/520/452
f 599/519/452 598/518/452 601/521/452
f 601/521/452 598/518/452 602/522/452
f 602/522/452 598/518/452 555/479/431
f 555/479/431 598/518/452 603/523/452
f 555/479/431 603/523/452 553/477/429
f 597/517/449 604/524/449 605/525/450
f 604/524/449 597/517/449 596/516/451
f 604/524/449 596/516/451 606/526/449
f 604/524/449 606/526/449 607/527/453
f 607/527/453 606/526/449 608/528/454
f 608/528/454 606/526/449 609/529/455
f 608/528/454 609/529/455 610/530/452
f 608/528/454 610/530/452 611/531/454
f 611/531/454 610/530/452 612/532/452
f 611/531/454 612/532/452 613/533/452
f 611/531/454 613/533/452 614/534/454
f 613/533/452 612/532/452 615/535/452
f 614/534/454 613/533/452 616/536/456
f 614/534/454 616/536/456 617/537/457
f 614/534/454 617/537/457 618/538/458
f 614/534/454 618/538/458 619/539/459
f 619/539/459 618/538/458 620/540/457
f 619/539/459 620/540/457 621/541/457
f 621/541/457 620/540/457 622/542/457
f 623/543/449 607/527/453 624/544/450
f 607/527/453 623/543/449 604/524/449
f 597/517/449 625/545/450 594/514/450
f 626/546/452 613/533/452 615/535/452
f 613/533/452 626/546/452 627/547/452
f 627/547/452 626/546/452 628/548/452
f 627/547/452 628/548/452 629/549/452
f 628/548/452 626/546/452 599/519/452
f 599/519/452 626/546/452 600/520/452
f 600/520/452 626/546/452 630/550/452
f 600/520/452 630/550/452 631/551/452
f 629/549/452 628/548/452 632/552/452
f 629/549/452 632/552/452 633/553/452
f 629/549/452 633/553/452 634/554/452
f 629/549/452 634/554/452 558/482/431
f 629/549/452 558/482/431 559/483/432
f 629/549/452 559/483/432 635/555/460
f 629/549/452 635/555/460 636/556/452
f 636/556/452 635/555/460 637/557/452
f 637/557/452 635/555/460 638/558/452
f 638/558/452 635/555/460 639/559/452
f 639/559/452 635/555/460 4/4/461
f 639/559/452 4/4/461 640/560/452
f 641/561/452 636/556/452 637/557/452
f 642/366/462 643/374/462 644/371/462
f 643/374/462 642/366/462 645/372/463
f 645/372/463 642/366/462 646/369/462
f 646/369/462 642/366/462 647/365/462
f 648/354/464 649/347/465 650/356/464
f 649/347/465 648/354/464 651/352/466
f 649/347/465 651/352/466 652/350/467
f 649/347/465 652/350/467 653/348/467
f 571/493/439 578/500/439 569/491/439
f 575/497/441 577/499/443 573/495/439
f 577/499/443 575/497/441 576/498/442
f 578/500/439 580/502/445 567/489/438
f 580/502/445 578/500/439 582/504/443
f 582/504/443 578/500/439 571/493/439
f 577/499/443 571/493/439 570/492/439
f 571/493/439 577/499/443 582/504/443
f 582/504/443 577/499/443 584/506/443
f 584/506/443 577/499/443 576/498/442
f 584/506/443 576/498/442 654/562/427
f 584/506/443 654/562/427 585/507/446
f 585/507/446 654/562/427 655/563/427
f 655/563/427 654/562/427 656/564/427
f 655/563/427 656/564/427 657/565/427
f 657/565/427 656/564/427 658/566/427
f 658/566/427 656/564/427 659/567/427
f 657/565/427 658/566/427 660/568/427
f 658/566/427 659/567/427 661/569/468
f 661/569/468 659/567/427 662/570/469
f 662/570/469 659/567/427 663/571/470
f 663/571/470 659/567/427 664/572/471
f 663/571/470 664/572/471 665/573/470
f 665/573/470 664/572/471 666/574/469
f 665/573/470 666/574/469 667/575/469
f 658/566/427 668/576/427 660/568/427
f 668/576/427 658/566/427 669/577/427
f 668/576/427 669/577/427 670/578/427
f 670/578/427 669/577/427 671/579/427
f 668/576/427 670/578/427 672/580/427
f 668/576/427 672/580/427 673/581/427
f 673/581/427 672/580/427 674/582/427
f 672/580/427 670/578/427 675/583/427
f 670/578/427 671/579/427 676/584/427
f 676/584/427 671/579/427 677/585/427
f 677/585/427 671/579/427 678/586/427
f 678/586/427 671/579/427 679/587/427
f 679/587/427 671/579/427 680/588/427
f 680/588/427 671/579/427 551/475/427
f 551/475/427 671/579/427 552/476/427
f 552/476/427 671/579/427 1/1/472
f 1/1/472 671/579/427 681/589/427
f 1/1/472 681/589/427 682/590/427
f 682/590/427 681/589/427 683/591/427
f 1/1/472 684/592/427 685/593/2
f 684/592/427 1/1/472 682/590/427
f 685/593/2 684/592/427 686/594/427
f 685/593/2 686/594/427 687/595/428
f 672/580/427 543/467/428 542/466/427
f 543/467/428 672/580/427 675/583/427
f 688/392/430 689/379/430 690/400/430
f 689/379/430 688/392/430 691/391/430
f 689/379/430 691/391/430 692/380/430
f 692/380/430 691/391/430 693/388/430
f 692/380/430 693/388/430 694/398/430
f 694/398/430 693/388/430 695/387/430
f 694/398/430 695/387/430 696/404/430
f 696/404/430 695/387/430 697/402/430
f 696/404/430 697/402/430 698/395/430
f 698/395/430 697/402/430 699/396/430
f 700/384/427 701/424/427 702/428/427
f 701/424/427 700/384/427 703/420/427
f 703/420/427 700/384/427 704/383/427
f 703/420/427 704/383/427 705/416/427
f 705/416/427 704/383/427 706/410/427
f 705/416/427 706/410/427 707/412/427
f 707/412/427 706/410/427 708/407/427
f 708/407/427 706/410/427 709/414/427
f 708/407/427 709/414/427 710/408/427
f 710/408/427 709/414/427 711/418/427
f 710/408/427 711/418/427 712/430/427
f 712/430/427 711/418/427 713/422/427
f 712/430/427 713/422/427 714/426/427
f 715/596/473 593/513/449 595/515/449
f 593/513/449 715/596/473 716/597/474
f 593/513/449 716/597/474 596/516/451
f 596/516/451 716/597/474 717/598/473
f 596/516/451 717/598/473 606/526/449
f 606/526/449 717/598/473 609/529/455
f 718/599/473 719/600/473 720/601/473
f 719/600/473 718/599/473 721/602/473
f 721/602/473 718/599/473 722/603/473
f 722/603/473 718/599/473 595/515/449
f 595/515/449 718/599/473 715/596/473
f 722/603/473 595/515/449 625/545/450
f 625/545/450 595/515/449 594/514/450
f 597/517/449 605/525/450 625/545/450
f 604/524/449 624/544/450 605/525/450
f 624/544/450 604/524/449 623/543/449
f 625/545/450 723/604/475 722/603/473
f 723/604/475 625/545/450 624/544/450
f 624/544/450 625/545/450 605/525/450
f 723/604/475 624/544/450 607/527/453
f 607/527/453 724/605/430 723/604/475
f 724/605/430 607/527/453 608/528/454
f 724/605/430 608/528/454 611/531/454
f 724/605/430 611/531/454 725/606/476
f 725/606/476 611/531/454 614/534/454
f 725/606/476 614/534/454 619/539/459
f 726/607/477 617/537/457 616/536/456
f 617/537/457 726/607/477 618/538/458
f 618/538/458 726/607/477 620/540/457
f 620/540/457 726/607/477 622/542/457
f 621/541/457 725/606/476 619/539/459
f 725/606/476 621/541/457 622/542/457
f 725/606/476 622/542/457 726/607/477
f 725/606/476 726/607/477 727/608/478
f 725/606/476 727/608/478 728/609/478
f 729/610/479 666/574/469 664/572/471
f 666/574/469 729/610/479 667/575/469
f 667/575/469 729/610/479 730/611/480
f 730/611/480 729/610/479 731/612/481
f 731/612/481 729/610/479 732/613/481
f 662/570/469 730/611/480 661/569/468
f 730/611/480 662/570/469 663/571/470
f 730/611/480 663/571/470 665/573/470
f 730/611/480 665/573/470 667/575/469
f 733/614/427 576/498/442 574/496/440
f 576/498/442 733/614/427 654/562/427
f 654/562/427 733/614/427 656/564/427
f 656/564/427 733/614/427 729/610/479
f 656/564/427 729/610/479 659/567/427
f 659/567/427 729/610/479 664/572/471
f 734/615/461 735/335/482 736/336/482
f 735/335/482 734/615/461 2/2/2
f 2/2/2 734/615/461 6/6/6
f 2/2/2 6/6/6 3/3/3
