# Blender 5.2.0 LTS
# www.blender.org
mtllib board.mtl
o Chess_board_Top_0
v 5.520950 -0.396732 5.520950
v -5.520950 -0.396732 5.520950
v -5.520950 -0.396735 -5.520950
v 5.520950 -0.396735 -5.520950
v -5.520950 -0.396735 -5.520950
v -5.520950 -0.396732 5.520950
v -5.520950 -0.472658 5.520950
v -5.520950 -0.472661 -5.520950
v 5.520950 -0.396732 5.520950
v 5.520950 -0.396735 -5.520950
v 5.520950 -0.472661 -5.520950
v 5.520950 -0.472658 5.520950
v 5.520950 -0.472661 -5.520950
v -5.520950 -0.472661 -5.520950
v -6.410830 -0.490660 -6.410830
v 6.410830 -0.490660 -6.410830
v 5.520950 -0.472658 5.520950
v 5.520950 -0.472661 -5.520950
v 6.410830 -0.490660 -6.410830
v 6.410830 -0.490657 6.410830
v -5.520950 -0.472661 -5.520950
v -5.520950 -0.472658 5.520950
v -6.410830 -0.490657 6.410830
v -6.410830 -0.490660 -6.410830
v -5.520950 -0.472658 5.520950
v 5.520950 -0.472658 5.520950
v 6.410830 -0.490657 6.410830
v -6.410830 -0.490657 6.410830
v 5.520950 -0.396735 -5.520950
v -5.520950 -0.396735 -5.520950
v -5.520950 -0.472661 -5.520950
v 5.520950 -0.472661 -5.520950
v -5.520950 -0.396732 5.520950
v 5.520950 -0.396732 5.520950
v 5.520950 -0.472658 5.520950
v -5.520950 -0.472658 5.520950
vn -0.0000 -1.0000 -0.0000
vn 1.0000 -0.0000 -0.0000
vn -1.0000 -0.0000 -0.0000
vn -0.0000 -0.9998 0.0202
vn -0.0202 -0.9998 -0.0000
vn 0.0202 -0.9998 -0.0000
vn -0.0000 -0.9998 -0.0202
vn -0.0000 -0.0000 1.0000
vn -0.0000 -0.0000 -1.0000
vt 0.930596 0.069404
vt 0.069404 0.069404
vt 0.069404 0.930596
vt 0.930596 0.930596
vt 0.000000 1.000000
vt 1.000000 1.000000
vt 1.000000 0.000000
vt 0.000000 0.000000
s 1
usemtl material
f 1/1/1 2/2/1 3/3/1
f 1/1/1 3/3/1 4/4/1
f 5/3/2 6/2/2 7/2/2
f 5/3/2 7/2/2 8/3/2
f 9/1/3 10/4/3 11/4/3
f 9/1/3 11/4/3 12/1/3
f 13/4/4 14/3/4 15/5/4
f 13/4/4 15/5/4 16/6/4
f 17/1/5 18/4/5 19/6/5
f 17/1/5 19/6/5 20/7/5
f 21/3/6 22/2/6 23/8/6
f 21/3/6 23/8/6 24/5/6
f 25/2/7 26/1/7 27/7/7
f 25/2/7 27/7/7 28/8/7
f 29/4/8 30/3/8 31/3/8
f 29/4/8 31/3/8 32/4/8
f 33/2/9 34/1/9 35/1/9
f 33/2/9 35/1/9 36/2/9
o Chess_board_Wood_0
v 6.410830 0.396732 -6.410830
v 6.410830 -0.396735 -6.410830
v -6.410830 -0.396735 -6.410830
v -6.410830 0.396732 -6.410830
v -6.410830 0.396732 -6.410830
v -6.410830 -0.396735 -6.410830
v -6.410830 -0.396732 6.410830
v -6.410830 0.396735 6.410830
v -6.410830 0.396735 6.410830
v 6.410830 0.396735 6.410830
v 6.410830 0.396732 -6.410830
v -6.410830 0.396732 -6.410830
v 6.410830 0.396735 6.410830
v 6.410830 -0.396732 6.410830
v 6.410830 -0.396735 -6.410830
v 6.410830 0.396732 -6.410830
v -6.410830 0.396735 6.410830
v -6.410830 -0.396732 6.410830
v 6.410830 -0.396732 6.410830
v 6.410830 0.396735 6.410830
v 6.410830 -0.490657 6.410830
v 6.410830 -0.490660 -6.410830
v -6.410830 -0.490660 -6.410830
v -6.410830 -0.490657 6.410830
v -6.410830 -0.490657 6.410830
v 6.410830 -0.490657 6.410830
v 6.410830 -0.490660 -6.410830
v -6.410830 -0.490660 -6.410830
vn -0.0000 -0.0000 -1.0000
vn -1.0000 -0.0000 -0.0000
vn -0.0000 1.0000 -0.0000
vn 1.0000 -0.0000 -0.0000
vn -0.0000 -0.0000 1.0000
vt 0.947078 1.197078
vt 0.947078 0.302922
vt 0.052922 0.302922
vt 0.052922 1.197078
vt -0.541214 -0.504105
vt 0.896683 -0.504105
vt 0.896683 0.933792
vt -0.541214 0.933792
vt 0.947078 0.197078
vt 0.052922 0.197078
s 1
usemtl Wood
f 37/9/10 38/10/10 39/11/10
f 37/9/10 39/11/10 40/12/10
f 41/12/11 42/11/11 43/10/11
f 41/12/11 43/10/11 44/9/11
f 45/13/12 46/14/12 47/15/12
f 45/13/12 47/15/12 48/16/12
f 49/9/13 50/10/13 51/11/13
f 49/9/13 51/11/13 52/12/13
f 53/12/14 54/11/14 55/10/14
f 53/12/14 55/10/14 56/9/14
f 51/11/13 50/10/13 57/17/13
f 51/11/13 57/17/13 58/18/13
f 43/10/11 42/11/11 59/18/11
f 43/10/11 59/18/11 60/17/11
f 55/10/14 54/11/14 61/18/14
f 55/10/14 61/18/14 62/17/14
f 39/11/10 38/10/10 63/17/10
f 39/11/10 63/17/10 64/18/10
